{"glyphs":{"0":{"ha":492,"x_min":0,"x_max":0,"o":"m 446 210 b 421 99 444 168 436 131 b 361 24 408 71 389 44 b 246 -11 333 1 296 -11 b 129 24 196 -11 157 1 b 71 99 101 44 83 71 b 46 210 56 131 47 168 l 46 811 b 71 921 47 851 56 889 b 129 997 83 949 101 976 b 246 1032 157 1018 196 1032 b 361 997 296 1032 333 1018 b 421 921 389 976 408 949 b 446 811 436 889 444 851 z m 296 811 b 276 875 296 839 290 858 b 246 886 269 882 258 886 b 201 849 219 886 207 867 b 196 811 197 838 196 825 l 196 210 b 217 146 196 181 203 161 b 246 135 224 139 233 135 b 290 172 272 135 285 151 b 296 210 294 182 296 194 z "},"1":{"ha":322,"x_min":0,"x_max":0,"o":"m 17 800 l 17 896 b 143 968 79 908 117 940 b 176 1021 157 985 168 1003 l 267 1021 l 267 0 l 117 0 l 117 800 z "},"2":{"ha":496,"x_min":0,"x_max":0,"o":"m 42 697 l 42 768 b 81 951 42 836 51 903 b 242 1032 110 1000 160 1032 b 400 958 318 1032 369 1003 b 442 778 431 913 442 849 b 354 435 442 674 403 550 b 207 149 304 318 246 214 l 444 149 l 444 0 l 38 0 l 38 149 b 163 364 83 219 125 292 b 249 565 194 425 225 494 b 292 768 272 636 290 706 b 283 851 292 796 290 828 b 242 893 276 875 264 893 b 201 856 221 893 208 878 b 192 768 194 832 192 801 l 192 697 z "},"3":{"ha":465,"x_min":0,"x_max":0,"o":"m 156 461 l 156 586 b 260 632 218 590 247 603 b 269 686 267 646 269 664 b 269 768 269 708 269 736 b 264 856 269 797 269 829 b 222 900 258 882 246 900 b 188 865 204 900 193 892 b 178 726 181 838 178 794 l 31 726 b 57 924 31 783 32 861 b 222 1032 82 985 128 1032 b 390 932 317 1032 365 983 b 417 813 415 881 417 825 b 344 543 417 661 390 589 l 343 542 b 429 261 415 485 429 379 b 428 232 429 257 429 247 b 403 115 426 203 418 160 b 315 7 386 71 358 31 b 235 -11 293 -6 267 -11 b 65 99 140 -11 92 36 b 36 294 39 160 36 238 l 183 294 b 196 157 183 226 188 183 b 235 121 204 129 217 121 b 276 164 258 121 271 139 b 282 250 282 189 282 221 b 283 338 282 282 282 311 b 242 443 283 388 274 422 b 168 461 225 453 200 460 z "},"4":{"ha":464,"x_min":0,"x_max":0,"o":"m 249 222 l 17 222 l 17 354 l 236 1021 l 386 1021 l 386 354 l 456 354 l 456 222 l 386 222 l 386 0 l 249 0 z m 144 354 l 249 354 l 249 704 l 240 704 l 232 674 z "},"5":{"ha":478,"x_min":0,"x_max":0,"o":"m 292 483 b 244 558 292 526 276 558 b 203 531 228 558 214 546 b 186 483 192 514 186 494 l 60 483 l 60 1021 l 422 1021 l 422 872 l 189 872 l 189 660 b 244 690 206 672 224 683 b 275 694 254 694 265 696 b 417 601 353 694 394 650 b 442 483 439 553 442 500 l 442 256 b 413 88 442 207 439 142 b 246 -11 386 32 336 -11 b 79 93 153 -11 106 32 b 50 297 53 153 50 229 l 200 297 l 200 257 b 210 150 200 206 203 169 b 246 119 217 129 228 119 b 281 149 261 119 274 129 b 292 256 288 168 292 204 z "},"6":{"ha":475,"x_min":0,"x_max":0,"o":"m 436 210 b 407 82 436 186 433 131 b 240 -11 381 32 331 -11 b 74 82 147 -11 100 32 b 44 210 47 131 44 186 l 44 790 b 72 939 44 825 46 888 b 240 1032 99 989 146 1032 b 408 939 335 1032 382 989 b 436 790 435 888 436 825 l 436 726 l 286 726 b 279 865 286 794 285 839 b 240 901 274 892 263 901 b 204 875 222 901 210 893 b 194 790 197 857 194 829 l 194 608 b 269 633 221 624 243 633 b 411 547 347 633 389 593 b 436 418 433 501 436 446 z m 194 165 b 240 119 194 153 206 119 b 286 165 272 119 286 153 l 286 471 b 240 517 286 483 272 517 b 194 475 208 517 196 490 z "},"7":{"ha":400,"x_min":0,"x_max":0,"o":"m 231 872 l 6 872 l 6 1021 l 383 1021 l 383 871 l 233 0 l 78 0 z "},"8":{"ha":472,"x_min":0,"x_max":0,"o":"m 436 218 b 428 147 436 208 435 181 b 375 43 421 113 404 74 b 236 -11 346 13 301 -11 b 97 43 171 -11 126 13 b 44 147 68 74 51 113 b 36 218 38 181 36 208 l 36 338 b 114 539 36 414 63 490 b 44 726 68 585 44 656 l 44 813 b 71 932 44 825 46 881 b 236 1032 96 983 142 1032 b 403 932 331 1032 378 983 b 428 813 428 881 428 825 l 428 726 b 358 539 428 656 404 585 b 436 338 410 490 436 414 z m 281 760 b 274 865 281 807 278 842 b 236 900 268 889 256 900 b 203 869 219 900 208 890 b 200 643 190 829 189 692 b 236 606 204 618 217 606 b 274 643 256 606 268 618 b 281 760 278 667 281 706 z m 290 278 b 283 414 290 339 288 385 b 236 458 278 443 263 458 b 190 414 210 458 194 443 b 194 161 179 354 181 206 b 236 126 201 138 215 126 b 283 167 263 126 278 140 b 290 278 288 193 290 231 z "},"9":{"ha":475,"x_min":0,"x_max":0,"o":"m 39 811 b 68 940 39 835 42 890 b 235 1032 94 989 142 1032 b 401 940 325 1032 375 989 b 431 811 428 890 431 835 l 431 231 b 403 83 431 193 429 133 b 235 -11 376 32 329 -11 b 67 83 140 -11 93 32 b 39 231 40 133 39 193 l 39 294 l 189 294 b 196 156 189 226 190 182 b 235 119 201 129 213 119 b 272 146 253 119 265 128 b 281 231 278 164 281 192 l 281 422 b 206 397 254 407 232 397 b 64 483 128 397 86 438 b 39 613 42 529 39 585 z m 281 856 b 235 901 281 868 269 901 b 189 856 203 901 189 868 l 189 560 b 235 514 189 547 203 514 b 281 556 267 514 279 540 z "},"Á":{"ha":519,"x_min":0,"x_max":0,"o":"m 417 1236 l 307 1111 l 199 1111 l 271 1236 z m 14 0 l 168 1021 l 351 1021 l 506 0 l 360 0 l 332 208 l 188 208 l 160 0 z m 268 689 l 264 715 l 256 715 l 251 689 l 208 367 l 311 367 z "},"Ă":{"ha":519,"x_min":0,"x_max":0,"o":"m 414 1210 b 325 1154 390 1186 363 1167 b 261 1144 307 1147 285 1144 b 149 1176 213 1144 175 1160 b 108 1210 133 1186 119 1197 l 183 1274 b 228 1246 193 1261 208 1251 b 261 1242 238 1243 249 1242 b 321 1257 288 1242 306 1247 b 342 1274 329 1261 336 1267 z m 14 0 l 168 1021 l 351 1021 l 506 0 l 360 0 l 332 208 l 188 208 l 160 0 z m 268 689 l 264 715 l 256 715 l 251 689 l 208 367 l 311 367 z "},"Â":{"ha":519,"x_min":0,"x_max":0,"o":"m 335 1236 l 431 1111 l 303 1111 l 260 1160 l 218 1111 l 90 1111 l 186 1236 z m 14 0 l 168 1021 l 351 1021 l 506 0 l 360 0 l 332 208 l 188 208 l 160 0 z m 268 689 l 264 715 l 256 715 l 251 689 l 208 367 l 311 367 z "},"Ä":{"ha":519,"x_min":0,"x_max":0,"o":"m 97 1247 l 226 1247 l 226 1111 l 97 1111 z m 293 1247 l 422 1247 l 422 1111 l 293 1111 z m 14 0 l 168 1021 l 351 1021 l 506 0 l 360 0 l 332 208 l 188 208 l 160 0 z m 268 689 l 264 715 l 256 715 l 251 689 l 208 367 l 311 367 z "},"À":{"ha":519,"x_min":0,"x_max":0,"o":"m 242 1236 l 314 1111 l 206 1111 l 96 1236 z m 14 0 l 168 1021 l 351 1021 l 506 0 l 360 0 l 332 208 l 188 208 l 160 0 z m 268 689 l 264 715 l 256 715 l 251 689 l 208 367 l 311 367 z "},"Ā":{"ha":519,"x_min":0,"x_max":0,"o":"m 126 1263 l 396 1263 l 396 1153 l 126 1153 z m 14 0 l 168 1021 l 351 1021 l 506 0 l 360 0 l 332 208 l 188 208 l 160 0 z m 268 689 l 264 715 l 256 715 l 251 689 l 208 367 l 311 367 z "},"Ą":{"ha":519,"x_min":0,"x_max":0,"o":"m 506 0 l 351 1021 l 168 1021 l 14 0 l 160 0 l 188 208 l 332 208 l 360 0 l 374 0 b 328 -43 356 -12 340 -28 b 282 -143 304 -69 282 -104 b 424 -261 282 -206 333 -261 b 494 -249 447 -261 465 -258 l 506 -156 b 447 -168 489 -162 471 -168 b 378 -115 415 -168 378 -156 b 388 -69 378 -99 381 -83 b 440 0 400 -42 417 -21 z m 208 367 l 251 689 l 256 715 l 264 715 l 268 689 l 311 367 z "},"Å":{"ha":519,"x_min":0,"x_max":0,"o":"m 157 1194 b 261 1292 157 1251 204 1292 b 364 1194 318 1292 364 1251 b 261 1097 364 1138 318 1097 b 157 1194 204 1097 157 1138 z m 210 1194 b 261 1146 210 1168 235 1146 b 313 1194 288 1146 313 1168 b 261 1243 313 1221 288 1243 b 210 1194 235 1243 210 1221 z m 14 0 l 168 1021 l 351 1021 l 506 0 l 360 0 l 332 208 l 188 208 l 160 0 z m 268 689 l 264 715 l 256 715 l 251 689 l 208 367 l 311 367 z "},"Ã":{"ha":519,"x_min":0,"x_max":0,"o":"m 125 1210 b 171 1232 138 1219 154 1226 b 199 1236 179 1235 189 1236 b 260 1225 219 1236 240 1232 b 321 1210 279 1217 300 1211 b 372 1221 342 1210 357 1215 b 394 1232 381 1225 388 1228 l 394 1129 b 349 1107 382 1118 365 1111 b 321 1103 340 1104 331 1103 b 261 1115 300 1103 279 1107 b 199 1129 242 1124 221 1128 b 147 1118 178 1129 163 1124 b 125 1107 139 1114 132 1111 z m 14 0 l 168 1021 l 351 1021 l 506 0 l 360 0 l 332 208 l 188 208 l 160 0 z m 268 689 l 264 715 l 256 715 l 251 689 l 208 367 l 311 367 z "},"Æ":{"ha":746,"x_min":0,"x_max":0,"o":"m 375 208 l 221 208 l 160 0 l 11 0 l 296 1021 l 718 1021 l 718 867 l 525 867 l 525 599 l 664 599 l 664 435 l 525 435 l 525 154 l 718 154 l 718 0 l 375 0 z m 267 367 l 375 367 l 375 715 l 368 715 z "},"B":{"ha":506,"x_min":0,"x_max":0,"o":"m 56 0 l 56 1021 l 188 1021 b 392 961 276 1021 346 1004 b 461 750 438 918 461 851 b 442 632 461 701 457 665 b 368 539 426 599 403 571 b 456 414 406 518 433 479 b 472 289 467 382 472 340 b 424 92 472 213 458 144 b 240 0 389 39 329 4 z m 206 600 b 272 615 218 600 247 599 b 317 736 297 632 317 665 b 272 857 317 807 297 840 b 206 872 247 874 218 872 z m 206 149 b 272 164 218 149 247 146 b 317 306 297 182 317 222 b 272 447 317 389 297 429 b 206 463 247 465 218 463 z "},"C":{"ha":481,"x_min":0,"x_max":0,"o":"m 446 350 l 446 210 b 421 99 444 168 436 131 b 361 24 408 71 389 44 b 246 -11 333 1 296 -11 b 129 24 196 -11 157 1 b 71 99 101 44 83 71 b 46 210 56 131 47 168 l 46 811 b 71 921 47 851 56 889 b 129 997 83 949 101 976 b 246 1032 157 1018 196 1032 b 361 997 296 1032 333 1018 b 421 921 389 976 408 949 b 446 811 436 889 444 851 l 446 671 l 306 671 l 306 811 b 283 875 306 839 299 858 b 249 886 276 882 264 886 b 203 849 222 886 210 867 b 196 811 199 838 197 825 l 196 210 b 219 146 197 181 206 161 b 249 135 226 139 236 135 b 300 172 281 135 293 151 b 306 210 304 182 306 194 l 306 350 z "},"Ć":{"ha":481,"x_min":0,"x_max":0,"o":"m 351 1271 l 242 1146 l 133 1146 l 206 1271 z m 446 350 l 446 210 b 421 99 444 168 436 131 b 361 24 408 71 389 44 b 246 -11 333 1 296 -11 b 129 24 196 -11 157 1 b 71 99 101 44 83 71 b 46 210 56 131 47 168 l 46 811 b 71 921 47 851 56 889 b 129 997 83 949 101 976 b 246 1032 157 1018 196 1032 b 361 997 296 1032 333 1018 b 421 921 389 976 408 949 b 446 811 436 889 444 851 l 446 671 l 306 671 l 306 811 b 283 875 306 839 299 858 b 249 886 276 882 264 886 b 203 849 222 886 210 867 b 196 811 199 838 197 825 l 196 210 b 219 146 197 181 206 161 b 249 135 226 139 236 135 b 300 172 281 135 293 151 b 306 210 304 182 306 194 l 306 350 z "},"Č":{"ha":481,"x_min":0,"x_max":0,"o":"m 168 1146 l 72 1271 l 200 1271 l 242 1222 l 285 1271 l 413 1271 l 317 1146 z m 446 350 l 446 210 b 421 99 444 168 436 131 b 361 24 408 71 389 44 b 246 -11 333 1 296 -11 b 129 24 196 -11 157 1 b 71 99 101 44 83 71 b 46 210 56 131 47 168 l 46 811 b 71 921 47 851 56 889 b 129 997 83 949 101 976 b 246 1032 157 1018 196 1032 b 361 997 296 1032 333 1018 b 421 921 389 976 408 949 b 446 811 436 889 444 851 l 446 671 l 306 671 l 306 811 b 283 875 306 839 299 858 b 249 886 276 882 264 886 b 203 849 222 886 210 867 b 196 811 199 838 197 825 l 196 210 b 219 146 197 181 206 161 b 249 135 226 139 236 135 b 300 172 281 135 293 151 b 306 210 304 182 306 194 l 306 350 z "},"Ç":{"ha":481,"x_min":0,"x_max":0,"o":"m 446 350 l 446 210 b 421 99 444 168 436 131 b 361 24 408 71 389 44 b 246 -11 333 1 296 -11 b 129 24 196 -11 157 1 b 71 99 101 44 83 71 b 46 210 56 131 47 168 l 46 811 b 71 921 47 851 56 889 b 129 997 83 949 101 976 b 246 1032 157 1018 196 1032 b 361 997 296 1032 333 1018 b 421 921 389 976 408 949 b 446 811 436 889 444 851 l 446 671 l 306 671 l 306 811 b 283 875 306 839 299 858 b 249 886 276 882 264 886 b 203 849 222 886 210 867 b 196 811 199 838 197 825 l 196 210 b 219 146 197 181 206 161 b 249 135 226 139 236 135 b 300 172 281 135 293 151 b 306 210 304 182 306 194 l 306 350 z m 299 -171 l 268 -261 l 197 -261 l 225 -171 l 182 -171 l 182 -75 l 299 -75 z "},"Ĉ":{"ha":481,"x_min":0,"x_max":0,"o":"m 317 1271 l 413 1146 l 285 1146 l 242 1194 l 200 1146 l 72 1146 l 168 1271 z m 446 350 l 446 210 b 421 99 444 168 436 131 b 361 24 408 71 389 44 b 246 -11 333 1 296 -11 b 129 24 196 -11 157 1 b 71 99 101 44 83 71 b 46 210 56 131 47 168 l 46 811 b 71 921 47 851 56 889 b 129 997 83 949 101 976 b 246 1032 157 1018 196 1032 b 361 997 296 1032 333 1018 b 421 921 389 976 408 949 b 446 811 436 889 444 851 l 446 671 l 306 671 l 306 811 b 283 875 306 839 299 858 b 249 886 276 882 264 886 b 203 849 222 886 210 867 b 196 811 199 838 197 825 l 196 210 b 219 146 197 181 206 161 b 249 135 226 139 236 135 b 300 172 281 135 293 151 b 306 210 304 182 306 194 l 306 350 z "},"Ċ":{"ha":481,"x_min":0,"x_max":0,"o":"m 172 1282 l 313 1282 l 313 1142 l 172 1142 z m 446 350 l 446 210 b 421 99 444 168 436 131 b 361 24 408 71 389 44 b 246 -11 333 1 296 -11 b 129 24 196 -11 157 1 b 71 99 101 44 83 71 b 46 210 56 131 47 168 l 46 811 b 71 921 47 851 56 889 b 129 997 83 949 101 976 b 246 1032 157 1018 196 1032 b 361 997 296 1032 333 1018 b 421 921 389 976 408 949 b 446 811 436 889 444 851 l 446 671 l 306 671 l 306 811 b 283 875 306 839 299 858 b 249 886 276 882 264 886 b 203 849 222 886 210 867 b 196 811 199 838 197 825 l 196 210 b 219 146 197 181 206 161 b 249 135 226 139 236 135 b 300 172 281 135 293 151 b 306 210 304 182 306 194 l 306 350 z "},"D":{"ha":517,"x_min":0,"x_max":0,"o":"m 56 0 l 56 1021 l 174 1021 b 428 915 313 1021 388 993 b 472 510 467 838 472 710 b 428 106 472 310 467 183 b 174 0 388 28 313 0 z m 206 150 b 301 206 257 150 286 156 b 315 314 308 229 314 265 b 317 511 317 363 317 428 b 315 708 317 594 317 660 b 301 817 314 756 308 792 b 206 871 286 865 257 871 z "},"Ð":{"ha":517,"x_min":0,"x_max":0,"o":"m 14 599 l 56 599 l 56 1021 l 174 1021 b 428 915 313 1021 388 993 b 472 510 467 838 472 710 b 428 106 472 310 467 183 b 174 0 388 28 313 0 l 56 0 l 56 444 l 14 444 z m 206 599 l 263 599 l 263 444 l 206 444 l 206 150 b 301 206 257 150 286 156 b 315 314 308 229 314 265 b 317 511 317 363 317 428 b 315 708 317 594 317 660 b 301 817 314 756 308 792 b 206 871 286 865 257 871 z "},"Ď":{"ha":517,"x_min":0,"x_max":0,"o":"m 186 1146 l 90 1271 l 218 1271 l 260 1222 l 303 1271 l 431 1271 l 335 1146 z m 56 0 l 56 1021 l 174 1021 b 428 915 313 1021 388 993 b 472 510 467 838 472 710 b 428 106 472 310 467 183 b 174 0 388 28 313 0 z m 206 150 b 301 206 257 150 286 156 b 315 314 308 229 314 265 b 317 511 317 363 317 428 b 315 708 317 594 317 660 b 301 817 314 756 308 792 b 206 871 286 865 257 871 z "},"Đ":{"ha":517,"x_min":0,"x_max":0,"o":"m 56 1021 l 56 569 l -26 569 l -26 460 l 56 460 l 56 0 l 174 0 b 428 106 313 0 388 28 b 472 510 467 183 472 310 b 428 915 472 710 467 838 b 174 1021 388 993 313 1021 z m 206 460 l 243 460 l 243 569 l 206 569 l 206 871 b 301 817 257 871 286 865 b 315 708 308 792 314 756 b 317 511 317 660 317 594 b 315 314 317 428 317 363 b 301 206 314 265 308 229 b 206 150 286 156 257 150 z "},"E":{"ha":426,"x_min":0,"x_max":0,"o":"m 56 1021 l 399 1021 l 399 867 l 206 867 l 206 599 l 344 599 l 344 435 l 206 435 l 206 154 l 399 154 l 399 0 l 56 0 z "},"É":{"ha":426,"x_min":0,"x_max":0,"o":"m 378 1236 l 268 1111 l 160 1111 l 232 1236 z m 56 1021 l 399 1021 l 399 867 l 206 867 l 206 599 l 344 599 l 344 435 l 206 435 l 206 154 l 399 154 l 399 0 l 56 0 z "},"Ĕ":{"ha":426,"x_min":0,"x_max":0,"o":"m 368 1210 b 279 1154 344 1186 317 1167 b 215 1144 261 1147 239 1144 b 103 1176 167 1144 129 1160 b 63 1210 88 1186 74 1197 l 138 1274 b 182 1246 147 1261 163 1251 b 215 1242 192 1243 203 1242 b 275 1257 242 1242 260 1247 b 296 1274 283 1261 290 1267 z m 56 1021 l 399 1021 l 399 867 l 206 867 l 206 599 l 344 599 l 344 435 l 206 435 l 206 154 l 399 154 l 399 0 l 56 0 z "},"Ě":{"ha":426,"x_min":0,"x_max":0,"o":"m 140 1146 l 44 1271 l 172 1271 l 214 1222 l 257 1271 l 385 1271 l 289 1146 z m 56 1021 l 399 1021 l 399 867 l 206 867 l 206 599 l 344 599 l 344 435 l 206 435 l 206 154 l 399 154 l 399 0 l 56 0 z "},"Ê":{"ha":426,"x_min":0,"x_max":0,"o":"m 301 1236 l 397 1111 l 269 1111 l 226 1160 l 185 1111 l 57 1111 l 153 1236 z m 56 1021 l 399 1021 l 399 867 l 206 867 l 206 599 l 344 599 l 344 435 l 206 435 l 206 154 l 399 154 l 399 0 l 56 0 z "},"Ë":{"ha":426,"x_min":0,"x_max":0,"o":"m 64 1247 l 193 1247 l 193 1111 l 64 1111 z m 260 1247 l 389 1247 l 389 1111 l 260 1111 z m 56 1021 l 399 1021 l 399 867 l 206 867 l 206 599 l 344 599 l 344 435 l 206 435 l 206 154 l 399 154 l 399 0 l 56 0 z "},"Ė":{"ha":426,"x_min":0,"x_max":0,"o":"m 144 1282 l 285 1282 l 285 1142 l 144 1142 z m 56 1021 l 399 1021 l 399 867 l 206 867 l 206 599 l 344 599 l 344 435 l 206 435 l 206 154 l 399 154 l 399 0 l 56 0 z "},"È":{"ha":426,"x_min":0,"x_max":0,"o":"m 221 1236 l 293 1111 l 185 1111 l 75 1236 z m 56 1021 l 399 1021 l 399 867 l 206 867 l 206 599 l 344 599 l 344 435 l 206 435 l 206 154 l 399 154 l 399 0 l 56 0 z "},"Ē":{"ha":426,"x_min":0,"x_max":0,"o":"m 81 1263 l 350 1263 l 350 1153 l 81 1153 z m 56 1021 l 399 1021 l 399 867 l 206 867 l 206 599 l 344 599 l 344 435 l 206 435 l 206 154 l 399 154 l 399 0 l 56 0 z "},"Ę":{"ha":426,"x_min":0,"x_max":0,"o":"m 399 0 l 399 154 l 206 154 l 206 435 l 344 435 l 344 599 l 206 599 l 206 867 l 399 867 l 399 1021 l 56 1021 l 56 0 l 268 0 b 222 -43 250 -12 235 -28 b 176 -143 199 -69 176 -104 b 318 -261 176 -206 228 -261 b 389 -249 342 -261 360 -258 l 400 -156 b 342 -168 383 -162 365 -168 b 272 -115 310 -168 272 -156 b 282 -69 272 -99 275 -83 b 335 0 294 -42 311 -21 z "},"F":{"ha":418,"x_min":0,"x_max":0,"o":"m 413 867 l 206 867 l 206 599 l 344 599 l 344 444 l 206 444 l 206 0 l 56 0 l 56 1021 l 413 1021 z "},"G":{"ha":500,"x_min":0,"x_max":0,"o":"m 296 654 l 296 811 b 276 875 296 839 290 858 b 246 886 269 882 258 886 b 201 849 219 886 207 867 b 196 811 197 838 196 825 l 196 197 b 217 133 196 168 203 149 b 246 122 224 126 233 122 b 290 160 272 122 285 139 b 296 197 294 169 296 182 l 296 382 l 236 382 l 236 508 l 446 508 l 446 0 l 357 0 l 339 49 b 222 -11 311 14 271 -11 b 115 24 174 -11 140 1 b 63 99 90 44 74 71 b 46 210 50 131 44 168 l 46 811 b 71 921 47 851 56 889 b 129 997 83 949 101 976 b 246 1032 157 1018 196 1032 b 361 997 296 1032 333 1018 b 421 921 389 976 408 949 b 446 811 436 889 444 851 l 446 654 z "},"Ğ":{"ha":500,"x_min":0,"x_max":0,"o":"m 404 1210 b 315 1154 381 1186 353 1167 b 251 1144 297 1147 275 1144 b 139 1176 203 1144 165 1160 b 99 1210 124 1186 110 1197 l 174 1274 b 218 1246 183 1261 199 1251 b 251 1242 228 1243 239 1242 b 311 1257 278 1242 296 1247 b 332 1274 319 1261 326 1267 z m 296 654 l 296 811 b 276 875 296 839 290 858 b 246 886 269 882 258 886 b 201 849 219 886 207 867 b 196 811 197 838 196 825 l 196 197 b 217 133 196 168 203 149 b 246 122 224 126 233 122 b 290 160 272 122 285 139 b 296 197 294 169 296 182 l 296 382 l 236 382 l 236 508 l 446 508 l 446 0 l 357 0 l 339 49 b 222 -11 311 14 271 -11 b 115 24 174 -11 140 1 b 63 99 90 44 74 71 b 46 210 50 131 44 168 l 46 811 b 71 921 47 851 56 889 b 129 997 83 949 101 976 b 246 1032 157 1018 196 1032 b 361 997 296 1032 333 1018 b 421 921 389 976 408 949 b 446 811 436 889 444 851 l 446 654 z "},"Ĝ":{"ha":500,"x_min":0,"x_max":0,"o":"m 326 1271 l 422 1146 l 294 1146 l 251 1194 l 210 1146 l 82 1146 l 178 1271 z m 296 654 l 296 811 b 276 875 296 839 290 858 b 246 886 269 882 258 886 b 201 849 219 886 207 867 b 196 811 197 838 196 825 l 196 197 b 217 133 196 168 203 149 b 246 122 224 126 233 122 b 290 160 272 122 285 139 b 296 197 294 169 296 182 l 296 382 l 236 382 l 236 508 l 446 508 l 446 0 l 357 0 l 339 49 b 222 -11 311 14 271 -11 b 115 24 174 -11 140 1 b 63 99 90 44 74 71 b 46 210 50 131 44 168 l 46 811 b 71 921 47 851 56 889 b 129 997 83 949 101 976 b 246 1032 157 1018 196 1032 b 361 997 296 1032 333 1018 b 421 921 389 976 408 949 b 446 811 436 889 444 851 l 446 654 z "},"Ģ":{"ha":500,"x_min":0,"x_max":0,"o":"m 296 654 l 296 811 b 276 875 296 839 290 858 b 246 886 269 882 258 886 b 201 849 219 886 207 867 b 196 811 197 838 196 825 l 196 197 b 217 133 196 168 203 149 b 246 122 224 126 233 122 b 290 160 272 122 285 139 b 296 197 294 169 296 182 l 296 382 l 236 382 l 236 508 l 446 508 l 446 0 l 357 0 l 339 49 b 222 -11 311 14 271 -11 b 115 24 174 -11 140 1 b 63 99 90 44 74 71 b 46 210 50 131 44 168 l 46 811 b 71 921 47 851 56 889 b 129 997 83 949 101 976 b 246 1032 157 1018 196 1032 b 361 997 296 1032 333 1018 b 421 921 389 976 408 949 b 446 811 436 889 444 851 l 446 654 z m 299 -171 l 268 -261 l 197 -261 l 225 -171 l 182 -171 l 182 -75 l 299 -75 z "},"Ġ":{"ha":500,"x_min":0,"x_max":0,"o":"m 182 1282 l 322 1282 l 322 1142 l 182 1142 z m 296 654 l 296 811 b 276 875 296 839 290 858 b 246 886 269 882 258 886 b 201 849 219 886 207 867 b 196 811 197 838 196 825 l 196 197 b 217 133 196 168 203 149 b 246 122 224 126 233 122 b 290 160 272 122 285 139 b 296 197 294 169 296 182 l 296 382 l 236 382 l 236 508 l 446 508 l 446 0 l 357 0 l 339 49 b 222 -11 311 14 271 -11 b 115 24 174 -11 140 1 b 63 99 90 44 74 71 b 46 210 50 131 44 168 l 46 811 b 71 921 47 851 56 889 b 129 997 83 949 101 976 b 246 1032 157 1018 196 1032 b 361 997 296 1032 333 1018 b 421 921 389 976 408 949 b 446 811 436 889 444 851 l 446 654 z "},"H":{"ha":528,"x_min":0,"x_max":0,"o":"m 322 444 l 206 444 l 206 0 l 56 0 l 56 1021 l 206 1021 l 206 599 l 322 599 l 322 1021 l 472 1021 l 472 0 l 322 0 z "},"Ħ":{"ha":528,"x_min":0,"x_max":0,"o":"m 528 871 l 472 871 l 472 1021 l 322 1021 l 322 871 l 206 871 l 206 1021 l 56 1021 l 56 871 l 1 871 l 1 761 l 56 761 l 56 0 l 206 0 l 206 444 l 322 444 l 322 0 l 472 0 l 472 761 l 528 761 z m 322 599 l 206 599 l 206 761 l 322 761 z "},"Ĥ":{"ha":528,"x_min":0,"x_max":0,"o":"m 340 1271 l 436 1146 l 308 1146 l 265 1194 l 224 1146 l 96 1146 l 192 1271 z m 322 444 l 206 444 l 206 0 l 56 0 l 56 1021 l 206 1021 l 206 599 l 322 599 l 322 1021 l 472 1021 l 472 0 l 322 0 z "},"I":{"ha":261,"x_min":0,"x_max":0,"o":"m 56 1021 l 206 1021 l 206 0 l 56 0 z "},"Ĳ":{"ha":549,"x_min":0,"x_max":0,"o":"m 56 1021 l 206 1021 l 206 0 l 56 0 z m 269 138 b 338 163 299 133 321 140 b 350 213 346 172 350 189 l 350 1021 l 500 1021 l 500 189 b 451 44 500 133 486 82 b 269 -10 417 7 358 -15 z "},"Í":{"ha":272,"x_min":0,"x_max":0,"o":"m 276 1236 l 167 1111 l 58 1111 l 131 1236 z m 56 1021 l 206 1021 l 206 0 l 56 0 z "},"Ĭ":{"ha":261,"x_min":0,"x_max":0,"o":"m 285 1210 b 196 1154 261 1186 233 1167 b 132 1144 178 1147 156 1144 b 19 1176 83 1144 46 1160 b -21 1210 4 1186 -10 1197 l 54 1274 b 99 1246 64 1261 79 1251 b 132 1242 108 1243 119 1242 b 192 1257 158 1242 176 1247 b 213 1274 200 1261 207 1267 z m 56 1021 l 206 1021 l 206 0 l 56 0 z "},"Î":{"ha":251,"x_min":0,"x_max":0,"o":"m 200 1236 l 296 1111 l 168 1111 l 125 1160 l 83 1111 l -44 1111 l 51 1236 z m 50 1021 l 200 1021 l 200 0 l 50 0 z "},"Ï":{"ha":253,"x_min":0,"x_max":0,"o":"m -36 1247 l 93 1247 l 93 1111 l -36 1111 z m 160 1247 l 289 1247 l 289 1111 l 160 1111 z m 51 1021 l 201 1021 l 201 0 l 51 0 z "},"İ":{"ha":261,"x_min":0,"x_max":0,"o":"m 63 1282 l 203 1282 l 203 1142 l 63 1142 z m 56 1021 l 206 1021 l 206 0 l 56 0 z "},"Ì":{"ha":272,"x_min":0,"x_max":0,"o":"m 142 1236 l 214 1111 l 106 1111 l -4 1236 z m 67 1021 l 217 1021 l 217 0 l 67 0 z "},"Ī":{"ha":261,"x_min":0,"x_max":0,"o":"m -3 1263 l 267 1263 l 267 1153 l -3 1153 z m 56 1021 l 206 1021 l 206 0 l 56 0 z "},"Į":{"ha":261,"x_min":0,"x_max":0,"o":"m 206 0 l 206 1021 l 56 1021 l 56 0 l 75 0 b 29 -43 57 -12 42 -28 b -17 -143 6 -69 -17 -104 b 125 -261 -17 -206 35 -261 b 196 -249 149 -261 167 -258 l 207 -156 b 149 -168 190 -162 172 -168 b 79 -115 117 -168 79 -156 b 89 -69 79 -99 82 -83 b 142 0 101 -42 118 -21 z "},"Ĩ":{"ha":261,"x_min":0,"x_max":0,"o":"m -3 1249 b 43 1271 10 1258 26 1265 b 71 1275 51 1274 61 1275 b 132 1264 92 1275 113 1271 b 193 1249 151 1256 172 1250 b 244 1260 214 1249 229 1254 b 267 1271 253 1264 260 1267 l 267 1168 b 221 1146 254 1157 238 1150 b 193 1142 213 1143 203 1142 b 133 1154 172 1142 151 1146 b 71 1168 114 1163 93 1167 b 19 1157 50 1168 35 1163 b -3 1146 11 1153 4 1150 z m 56 1021 l 206 1021 l 206 0 l 56 0 z "},"J":{"ha":288,"x_min":0,"x_max":0,"o":"m 8 138 b 76 163 38 133 60 140 b 89 213 85 172 89 189 l 89 1021 l 239 1021 l 239 189 b 190 44 239 133 225 82 b 8 -10 156 7 97 -15 z "},"Ĵ":{"ha":288,"x_min":0,"x_max":0,"o":"m 219 1271 l 315 1146 l 188 1146 l 144 1194 l 103 1146 l -25 1146 l 71 1271 z m 8 138 b 76 163 38 133 60 140 b 89 213 85 172 89 189 l 89 1021 l 239 1021 l 239 189 b 190 44 239 133 225 82 b 8 -10 156 7 97 -15 z "},"K":{"ha":521,"x_min":0,"x_max":0,"o":"m 206 1021 l 206 664 l 211 664 l 218 681 l 343 1021 l 489 1021 l 351 685 l 507 0 l 361 0 l 257 444 l 253 465 l 249 465 l 240 444 l 206 361 l 206 0 l 56 0 l 56 1021 z "},"Ķ":{"ha":521,"x_min":0,"x_max":0,"o":"m 206 1021 l 206 664 l 211 664 l 218 681 l 343 1021 l 489 1021 l 351 685 l 507 0 l 361 0 l 257 444 l 253 465 l 249 465 l 240 444 l 206 361 l 206 0 l 56 0 l 56 1021 z m 299 -171 l 268 -261 l 197 -261 l 225 -171 l 182 -171 l 182 -75 l 299 -75 z "},"L":{"ha":410,"x_min":0,"x_max":0,"o":"m 56 1021 l 206 1021 l 206 139 l 404 139 l 404 0 l 56 0 z "},"Ĺ":{"ha":410,"x_min":0,"x_max":0,"o":"m 315 1271 l 206 1146 l 97 1146 l 169 1271 z m 56 1021 l 206 1021 l 206 139 l 404 139 l 404 0 l 56 0 z "},"Ľ":{"ha":410,"x_min":0,"x_max":0,"o":"m 401 1024 l 325 843 l 256 843 l 304 1024 l 256 1024 l 256 1178 l 401 1178 z m 56 1021 l 206 1021 l 206 139 l 404 139 l 404 0 l 56 0 z "},"Ŀ":{"ha":410,"x_min":0,"x_max":0,"o":"m 56 1021 l 206 1021 l 206 139 l 404 139 l 404 0 l 56 0 z m 258 611 l 404 611 l 404 457 l 258 457 z "},"Ł":{"ha":426,"x_min":0,"x_max":0,"o":"m 28 531 l 72 565 l 72 1021 l 222 1021 l 222 682 l 304 746 l 304 596 l 222 532 l 222 139 l 421 139 l 421 0 l 72 0 l 72 415 l 28 381 z "},"M":{"ha":672,"x_min":0,"x_max":0,"o":"m 304 0 l 208 642 l 203 685 l 194 685 l 194 0 l 56 0 l 56 1021 l 239 1021 l 328 554 l 335 500 l 338 500 l 344 554 l 433 1021 l 617 1021 l 617 0 l 478 0 l 478 685 l 469 685 l 464 642 l 368 0 z "},"N":{"ha":549,"x_min":0,"x_max":0,"o":"m 214 532 l 201 579 l 193 579 l 193 0 l 56 0 l 56 1021 l 189 1021 l 335 489 l 347 442 l 356 442 l 356 1021 l 493 1021 l 493 0 l 360 0 z "},"Ń":{"ha":549,"x_min":0,"x_max":0,"o":"m 385 1271 l 275 1146 l 167 1146 l 239 1271 z m 214 532 l 201 579 l 193 579 l 193 0 l 56 0 l 56 1021 l 189 1021 l 335 489 l 347 442 l 356 442 l 356 1021 l 493 1021 l 493 0 l 360 0 z "},"Ň":{"ha":549,"x_min":0,"x_max":0,"o":"m 201 1146 l 106 1271 l 233 1271 l 275 1222 l 318 1271 l 446 1271 l 350 1146 z m 214 532 l 201 579 l 193 579 l 193 0 l 56 0 l 56 1021 l 189 1021 l 335 489 l 347 442 l 356 442 l 356 1021 l 493 1021 l 493 0 l 360 0 z "},"Ņ":{"ha":549,"x_min":0,"x_max":0,"o":"m 214 532 l 201 579 l 193 579 l 193 0 l 56 0 l 56 1021 l 189 1021 l 335 489 l 347 442 l 356 442 l 356 1021 l 493 1021 l 493 0 l 360 0 z m 299 -171 l 268 -261 l 197 -261 l 225 -171 l 182 -171 l 182 -75 l 299 -75 z "},"Ŋ":{"ha":549,"x_min":0,"x_max":0,"o":"m 356 1021 l 356 442 l 347 442 l 335 489 l 189 1021 l 56 1021 l 56 0 l 193 0 l 193 579 l 201 579 l 214 532 l 360 0 l 361 0 b 358 -4 360 -1 360 -3 b 300 -28 344 -25 324 -32 l 300 -168 b 453 -117 374 -174 424 -151 b 493 0 478 -86 490 -44 l 493 1021 z "},"Ñ":{"ha":549,"x_min":0,"x_max":0,"o":"m 140 1210 b 186 1232 153 1219 169 1226 b 214 1236 194 1235 204 1236 b 275 1225 235 1236 256 1232 b 336 1210 294 1217 315 1211 b 388 1221 357 1210 372 1215 b 410 1232 396 1225 403 1228 l 410 1129 b 364 1107 397 1118 381 1111 b 336 1103 356 1104 346 1103 b 276 1115 315 1103 294 1107 b 214 1129 257 1124 236 1128 b 163 1118 193 1129 178 1124 b 140 1107 154 1114 147 1111 z m 214 532 l 201 579 l 193 579 l 193 0 l 56 0 l 56 1021 l 189 1021 l 335 489 l 347 442 l 356 442 l 356 1021 l 493 1021 l 493 0 l 360 0 z "},"O":{"ha":492,"x_min":0,"x_max":0,"o":"m 446 210 b 421 99 444 168 436 131 b 361 24 408 71 389 44 b 246 -11 333 1 296 -11 b 129 24 196 -11 157 1 b 71 99 101 44 83 71 b 46 210 56 131 47 168 l 46 811 b 71 921 47 851 56 889 b 129 997 83 949 101 976 b 246 1032 157 1018 196 1032 b 361 997 296 1032 333 1018 b 421 921 389 976 408 949 b 446 811 436 889 444 851 z m 296 811 b 276 875 296 839 290 858 b 246 886 269 882 258 886 b 201 849 219 886 207 867 b 196 811 197 838 196 825 l 196 210 b 217 146 196 181 203 161 b 246 135 224 139 233 135 b 290 172 272 135 285 151 b 296 210 294 182 296 194 z "},"Ó":{"ha":492,"x_min":0,"x_max":0,"o":"m 411 1236 l 301 1111 l 193 1111 l 265 1236 z m 446 210 b 421 99 444 168 436 131 b 361 24 408 71 389 44 b 246 -11 333 1 296 -11 b 129 24 196 -11 157 1 b 71 99 101 44 83 71 b 46 210 56 131 47 168 l 46 811 b 71 921 47 851 56 889 b 129 997 83 949 101 976 b 246 1032 157 1018 196 1032 b 361 997 296 1032 333 1018 b 421 921 389 976 408 949 b 446 811 436 889 444 851 z m 296 811 b 276 875 296 839 290 858 b 246 886 269 882 258 886 b 201 849 219 886 207 867 b 196 811 197 838 196 825 l 196 210 b 217 146 196 181 203 161 b 246 135 224 139 233 135 b 290 172 272 135 285 151 b 296 210 294 182 296 194 z "},"Ŏ":{"ha":492,"x_min":0,"x_max":0,"o":"m 400 1210 b 311 1154 376 1186 349 1167 b 247 1144 293 1147 271 1144 b 135 1176 199 1144 161 1160 b 94 1210 119 1186 106 1197 l 169 1274 b 214 1246 179 1261 194 1251 b 247 1242 224 1243 235 1242 b 307 1257 274 1242 292 1247 b 328 1274 315 1261 322 1267 z m 446 210 b 421 99 444 168 436 131 b 361 24 408 71 389 44 b 246 -11 333 1 296 -11 b 129 24 196 -11 157 1 b 71 99 101 44 83 71 b 46 210 56 131 47 168 l 46 811 b 71 921 47 851 56 889 b 129 997 83 949 101 976 b 246 1032 157 1018 196 1032 b 361 997 296 1032 333 1018 b 421 921 389 976 408 949 b 446 811 436 889 444 851 z m 296 811 b 276 875 296 839 290 858 b 246 886 269 882 258 886 b 201 849 219 886 207 867 b 196 811 197 838 196 825 l 196 210 b 217 146 196 181 203 161 b 246 135 224 139 233 135 b 290 172 272 135 285 151 b 296 210 294 182 296 194 z "},"Ô":{"ha":492,"x_min":0,"x_max":0,"o":"m 321 1236 l 417 1111 l 289 1111 l 246 1160 l 204 1111 l 76 1111 l 172 1236 z m 446 210 b 421 99 444 168 436 131 b 361 24 408 71 389 44 b 246 -11 333 1 296 -11 b 129 24 196 -11 157 1 b 71 99 101 44 83 71 b 46 210 56 131 47 168 l 46 811 b 71 921 47 851 56 889 b 129 997 83 949 101 976 b 246 1032 157 1018 196 1032 b 361 997 296 1032 333 1018 b 421 921 389 976 408 949 b 446 811 436 889 444 851 z m 296 811 b 276 875 296 839 290 858 b 246 886 269 882 258 886 b 201 849 219 886 207 867 b 196 811 197 838 196 825 l 196 210 b 217 146 196 181 203 161 b 246 135 224 139 233 135 b 290 172 272 135 285 151 b 296 210 294 182 296 194 z "},"Ö":{"ha":492,"x_min":0,"x_max":0,"o":"m 83 1247 l 213 1247 l 213 1111 l 83 1111 z m 279 1247 l 408 1247 l 408 1111 l 279 1111 z m 446 210 b 421 99 444 168 436 131 b 361 24 408 71 389 44 b 246 -11 333 1 296 -11 b 129 24 196 -11 157 1 b 71 99 101 44 83 71 b 46 210 56 131 47 168 l 46 811 b 71 921 47 851 56 889 b 129 997 83 949 101 976 b 246 1032 157 1018 196 1032 b 361 997 296 1032 333 1018 b 421 921 389 976 408 949 b 446 811 436 889 444 851 z m 296 811 b 276 875 296 839 290 858 b 246 886 269 882 258 886 b 201 849 219 886 207 867 b 196 811 197 838 196 825 l 196 210 b 217 146 196 181 203 161 b 246 135 224 139 233 135 b 290 172 272 135 285 151 b 296 210 294 182 296 194 z "},"Ò":{"ha":492,"x_min":0,"x_max":0,"o":"m 228 1236 l 300 1111 l 192 1111 l 82 1236 z m 446 210 b 421 99 444 168 436 131 b 361 24 408 71 389 44 b 246 -11 333 1 296 -11 b 129 24 196 -11 157 1 b 71 99 101 44 83 71 b 46 210 56 131 47 168 l 46 811 b 71 921 47 851 56 889 b 129 997 83 949 101 976 b 246 1032 157 1018 196 1032 b 361 997 296 1032 333 1018 b 421 921 389 976 408 949 b 446 811 436 889 444 851 z m 296 811 b 276 875 296 839 290 858 b 246 886 269 882 258 886 b 201 849 219 886 207 867 b 196 811 197 838 196 825 l 196 210 b 217 146 196 181 203 161 b 246 135 224 139 233 135 b 290 172 272 135 285 151 b 296 210 294 182 296 194 z "},"Ő":{"ha":492,"x_min":0,"x_max":0,"o":"m 254 1271 l 144 1146 l 36 1146 l 108 1271 z m 460 1271 l 350 1146 l 242 1146 l 314 1271 z m 446 210 b 421 99 444 168 436 131 b 361 24 408 71 389 44 b 246 -11 333 1 296 -11 b 129 24 196 -11 157 1 b 71 99 101 44 83 71 b 46 210 56 131 47 168 l 46 811 b 71 921 47 851 56 889 b 129 997 83 949 101 976 b 246 1032 157 1018 196 1032 b 361 997 296 1032 333 1018 b 421 921 389 976 408 949 b 446 811 436 889 444 851 z m 296 811 b 276 875 296 839 290 858 b 246 886 269 882 258 886 b 201 849 219 886 207 867 b 196 811 197 838 196 825 l 196 210 b 217 146 196 181 203 161 b 246 135 224 139 233 135 b 290 172 272 135 285 151 b 296 210 294 182 296 194 z "},"Ō":{"ha":492,"x_min":0,"x_max":0,"o":"m 113 1263 l 382 1263 l 382 1153 l 113 1153 z m 446 210 b 421 99 444 168 436 131 b 361 24 408 71 389 44 b 246 -11 333 1 296 -11 b 129 24 196 -11 157 1 b 71 99 101 44 83 71 b 46 210 56 131 47 168 l 46 811 b 71 921 47 851 56 889 b 129 997 83 949 101 976 b 246 1032 157 1018 196 1032 b 361 997 296 1032 333 1018 b 421 921 389 976 408 949 b 446 811 436 889 444 851 z m 296 811 b 276 875 296 839 290 858 b 246 886 269 882 258 886 b 201 849 219 886 207 867 b 196 811 197 838 196 825 l 196 210 b 217 146 196 181 203 161 b 246 135 224 139 233 135 b 290 172 272 135 285 151 b 296 210 294 182 296 194 z "},"Ø":{"ha":492,"x_min":0,"x_max":0,"o":"m 40 -14 l 72 93 b 49 172 57 121 53 150 b 46 210 47 185 46 197 l 46 811 b 71 921 47 851 56 889 b 129 997 83 949 101 976 b 246 1032 157 1018 196 1032 b 353 1003 290 1032 325 1021 l 363 1035 l 446 1035 l 415 933 b 442 850 431 904 438 874 b 446 811 444 836 446 824 l 446 210 b 421 99 444 168 436 131 b 361 24 408 71 389 44 b 246 -11 333 1 296 -11 b 138 18 200 -11 164 0 l 128 -14 z m 196 493 l 296 818 b 288 858 296 825 293 842 b 246 886 281 874 268 886 b 201 849 219 886 207 867 b 196 811 197 838 196 825 z m 296 540 l 196 210 b 217 146 196 181 203 161 b 246 135 224 139 233 135 b 290 172 272 135 285 151 b 296 210 294 182 296 194 z "},"Õ":{"ha":492,"x_min":0,"x_max":0,"o":"m 111 1210 b 157 1232 124 1219 140 1226 b 185 1236 165 1235 175 1236 b 246 1225 206 1236 226 1232 b 307 1210 265 1217 286 1211 b 358 1221 328 1210 343 1215 b 381 1232 367 1225 374 1228 l 381 1129 b 335 1107 368 1118 351 1111 b 307 1103 326 1104 317 1103 b 247 1115 286 1103 265 1107 b 185 1129 228 1124 207 1128 b 133 1118 164 1129 149 1124 b 111 1107 125 1114 118 1111 z m 446 210 b 421 99 444 168 436 131 b 361 24 408 71 389 44 b 246 -11 333 1 296 -11 b 129 24 196 -11 157 1 b 71 99 101 44 83 71 b 46 210 56 131 47 168 l 46 811 b 71 921 47 851 56 889 b 129 997 83 949 101 976 b 246 1032 157 1018 196 1032 b 361 997 296 1032 333 1018 b 421 921 389 976 408 949 b 446 811 436 889 444 851 z m 296 811 b 276 875 296 839 290 858 b 246 886 269 882 258 886 b 201 849 219 886 207 867 b 196 811 197 838 196 825 l 196 210 b 217 146 196 181 203 161 b 246 135 224 139 233 135 b 290 172 272 135 285 151 b 296 210 294 182 296 194 z "},"Œ":{"ha":667,"x_min":0,"x_max":0,"o":"m 246 0 b 129 33 196 0 157 14 b 71 104 101 53 83 78 b 46 210 56 135 47 169 l 46 811 b 71 915 47 850 56 885 b 129 989 83 942 101 969 b 246 1021 157 1008 196 1021 l 639 1021 l 639 867 l 446 867 l 446 599 l 585 599 l 585 435 l 446 435 l 446 154 l 639 154 l 639 0 z m 296 821 b 286 861 296 831 293 847 b 246 886 279 875 267 886 b 201 849 219 886 207 867 b 196 811 197 838 196 825 l 196 210 b 217 146 196 181 203 161 b 246 135 224 139 233 135 b 290 172 272 135 285 151 b 296 210 294 182 296 194 z "},"P":{"ha":489,"x_min":0,"x_max":0,"o":"m 56 1021 l 206 1021 b 386 957 271 1021 336 1004 b 469 715 436 910 469 832 b 386 475 469 599 436 522 b 206 408 336 428 271 408 l 206 0 l 56 0 z m 206 561 b 297 593 251 561 281 569 b 318 710 314 615 318 653 b 297 832 318 767 314 807 b 206 868 281 857 251 868 z "},"Q":{"ha":494,"x_min":0,"x_max":0,"o":"m 446 210 b 433 131 446 186 442 160 b 415 86 429 115 422 101 b 475 50 428 69 446 56 l 475 -78 b 321 1 390 -78 347 -42 b 246 -11 300 -6 275 -11 b 129 24 196 -11 157 1 b 71 99 101 44 83 71 b 46 210 56 131 47 168 l 46 811 b 71 921 47 851 56 889 b 129 997 83 949 101 976 b 246 1032 157 1018 196 1032 b 361 997 296 1032 333 1018 b 421 921 389 976 408 949 b 446 811 436 889 444 851 z m 296 811 b 276 875 296 839 290 858 b 246 886 269 882 258 886 b 201 849 219 886 207 867 b 196 811 197 838 196 825 l 196 210 b 217 146 196 181 203 161 b 246 135 224 139 233 135 b 290 172 272 135 285 151 b 296 210 294 182 296 194 z "},"R":{"ha":501,"x_min":0,"x_max":0,"o":"m 324 0 l 246 431 l 206 431 l 206 0 l 56 0 l 56 1021 l 206 1021 b 461 726 385 1021 461 919 b 378 494 461 625 435 533 l 474 0 z m 206 569 b 276 592 226 569 254 572 b 317 721 299 611 317 649 b 276 851 317 793 299 832 b 206 872 254 871 226 872 z "},"Ŕ":{"ha":501,"x_min":0,"x_max":0,"o":"m 361 1271 l 251 1146 l 143 1146 l 215 1271 z m 324 0 l 246 431 l 206 431 l 206 0 l 56 0 l 56 1021 l 206 1021 b 461 726 385 1021 461 919 b 378 494 461 625 435 533 l 474 0 z m 206 569 b 276 592 226 569 254 572 b 317 721 299 611 317 649 b 276 851 317 793 299 832 b 206 872 254 871 226 872 z "},"Ř":{"ha":501,"x_min":0,"x_max":0,"o":"m 178 1146 l 82 1271 l 210 1271 l 251 1222 l 294 1271 l 422 1271 l 326 1146 z m 324 0 l 246 431 l 206 431 l 206 0 l 56 0 l 56 1021 l 206 1021 b 461 726 385 1021 461 919 b 378 494 461 625 435 533 l 474 0 z m 206 569 b 276 592 226 569 254 572 b 317 721 299 611 317 649 b 276 851 317 793 299 832 b 206 872 254 871 226 872 z "},"Ŗ":{"ha":501,"x_min":0,"x_max":0,"o":"m 324 0 l 246 431 l 206 431 l 206 0 l 56 0 l 56 1021 l 206 1021 b 461 726 385 1021 461 919 b 378 494 461 625 435 533 l 474 0 z m 206 569 b 276 592 226 569 254 572 b 317 721 299 611 317 649 b 276 851 317 793 299 832 b 206 872 254 871 226 872 z m 299 -171 l 268 -261 l 197 -261 l 225 -171 l 182 -171 l 182 -75 l 299 -75 z "},"S":{"ha":476,"x_min":0,"x_max":0,"o":"m 304 747 b 293 847 304 781 303 818 b 244 894 283 875 268 894 b 193 793 206 893 193 853 b 231 683 193 758 208 722 b 311 561 253 644 282 604 b 407 406 346 510 381 457 b 451 246 433 354 451 301 b 408 67 451 178 440 114 b 243 -11 376 19 325 -11 b 63 81 147 -11 93 25 b 25 286 32 136 25 210 l 172 300 b 185 182 172 257 174 214 b 243 126 194 149 211 126 b 304 239 288 126 304 174 b 265 351 304 272 288 311 b 226 413 253 371 240 392 b 132 553 197 454 165 501 b 58 711 99 604 74 657 b 46 793 50 738 46 765 b 90 954 46 849 58 908 b 242 1032 122 999 171 1031 b 414 942 332 1033 385 996 b 451 761 443 886 451 818 z "},"Ś":{"ha":476,"x_min":0,"x_max":0,"o":"m 349 1271 l 239 1146 l 131 1146 l 203 1271 z m 304 747 b 293 847 304 781 303 818 b 244 894 283 875 268 894 b 193 793 206 893 193 853 b 231 683 193 758 208 722 b 311 561 253 644 282 604 b 407 406 346 510 381 457 b 451 246 433 354 451 301 b 408 67 451 178 440 114 b 243 -11 376 19 325 -11 b 63 81 147 -11 93 25 b 25 286 32 136 25 210 l 172 300 b 185 182 172 257 174 214 b 243 126 194 149 211 126 b 304 239 288 126 304 174 b 265 351 304 272 288 311 b 226 413 253 371 240 392 b 132 553 197 454 165 501 b 58 711 99 604 74 657 b 46 793 50 738 46 765 b 90 954 46 849 58 908 b 242 1032 122 999 171 1031 b 414 942 332 1033 385 996 b 451 761 443 886 451 818 z "},"Š":{"ha":476,"x_min":0,"x_max":0,"o":"m 164 1111 l 68 1236 l 196 1236 l 238 1188 l 281 1236 l 408 1236 l 313 1111 z m 304 747 b 293 847 304 781 303 818 b 244 894 283 875 268 894 b 193 793 206 893 193 853 b 231 683 193 758 208 722 b 311 561 253 644 282 604 b 407 406 346 510 381 457 b 451 246 433 354 451 301 b 408 67 451 178 440 114 b 243 -11 376 19 325 -11 b 63 81 147 -11 93 25 b 25 286 32 136 25 210 l 172 300 b 185 182 172 257 174 214 b 243 126 194 149 211 126 b 304 239 288 126 304 174 b 265 351 304 272 288 311 b 226 413 253 371 240 392 b 132 553 197 454 165 501 b 58 711 99 604 74 657 b 46 793 50 738 46 765 b 90 954 46 849 58 908 b 242 1032 122 999 171 1031 b 414 942 332 1033 385 996 b 451 761 443 886 451 818 z "},"Ş":{"ha":476,"x_min":0,"x_max":0,"o":"m 304 747 b 293 847 304 781 303 818 b 244 894 283 875 268 894 b 193 793 206 893 193 853 b 231 683 193 758 208 722 b 311 561 253 644 282 604 b 407 406 346 510 381 457 b 451 246 433 354 451 301 b 408 67 451 178 440 114 b 243 -11 376 19 325 -11 b 63 81 147 -11 93 25 b 25 286 32 136 25 210 l 172 300 b 185 182 172 257 174 214 b 243 126 194 149 211 126 b 304 239 288 126 304 174 b 265 351 304 272 288 311 b 226 413 253 371 240 392 b 132 553 197 454 165 501 b 58 711 99 604 74 657 b 46 793 50 738 46 765 b 90 954 46 849 58 908 b 242 1032 122 999 171 1031 b 414 942 332 1033 385 996 b 451 761 443 886 451 818 z m 299 -171 l 268 -261 l 197 -261 l 225 -171 l 182 -171 l 182 -75 l 299 -75 z "},"Ŝ":{"ha":476,"x_min":0,"x_max":0,"o":"m 314 1271 l 410 1146 l 282 1146 l 239 1194 l 197 1146 l 69 1146 l 165 1271 z m 304 747 b 293 847 304 781 303 818 b 244 894 283 875 268 894 b 193 793 206 893 193 853 b 231 683 193 758 208 722 b 311 561 253 644 282 604 b 407 406 346 510 381 457 b 451 246 433 354 451 301 b 408 67 451 178 440 114 b 243 -11 376 19 325 -11 b 63 81 147 -11 93 25 b 25 286 32 136 25 210 l 172 300 b 185 182 172 257 174 214 b 243 126 194 149 211 126 b 304 239 288 126 304 174 b 265 351 304 272 288 311 b 226 413 253 371 240 392 b 132 553 197 454 165 501 b 58 711 99 604 74 657 b 46 793 50 738 46 765 b 90 954 46 849 58 908 b 242 1032 122 999 171 1031 b 414 942 332 1033 385 996 b 451 761 443 886 451 818 z "},"T":{"ha":439,"x_min":0,"x_max":0,"o":"m 3 867 l 3 1021 l 436 1021 l 436 867 l 294 867 l 294 0 l 144 0 l 144 867 z "},"Ŧ":{"ha":439,"x_min":0,"x_max":0,"o":"m 436 867 l 436 1021 l 3 1021 l 3 867 l 144 867 l 144 764 l 90 764 l 90 654 l 144 654 l 144 0 l 294 0 l 294 654 l 360 654 l 360 764 l 294 764 l 294 867 z "},"Ť":{"ha":439,"x_min":0,"x_max":0,"o":"m 147 1146 l 51 1271 l 179 1271 l 221 1222 l 264 1271 l 392 1271 l 296 1146 z m 3 867 l 3 1021 l 436 1021 l 436 867 l 294 867 l 294 0 l 144 0 l 144 867 z "},"Ț":{"ha":439,"x_min":0,"x_max":0,"o":"m 3 867 l 3 1021 l 436 1021 l 436 867 l 294 867 l 294 0 l 144 0 l 144 867 z m 299 -171 l 268 -261 l 197 -261 l 225 -171 l 182 -171 l 182 -75 l 299 -75 z "},"U":{"ha":508,"x_min":0,"x_max":0,"o":"m 454 1021 l 454 210 b 429 99 453 168 444 131 b 369 24 417 71 397 44 b 254 -11 342 1 304 -11 b 138 24 204 -11 165 1 b 79 99 110 44 92 71 b 54 210 64 131 56 168 l 54 1021 l 204 1021 l 204 210 b 225 146 204 181 211 161 b 254 135 232 139 242 135 b 299 172 281 135 293 151 b 304 210 303 182 304 194 l 304 1021 z "},"Ú":{"ha":508,"x_min":0,"x_max":0,"o":"m 426 1236 l 317 1111 l 208 1111 l 281 1236 z m 454 1021 l 454 210 b 429 99 453 168 444 131 b 369 24 417 71 397 44 b 254 -11 342 1 304 -11 b 138 24 204 -11 165 1 b 79 99 110 44 92 71 b 54 210 64 131 56 168 l 54 1021 l 204 1021 l 204 210 b 225 146 204 181 211 161 b 254 135 232 139 242 135 b 299 172 281 135 293 151 b 304 210 303 182 304 194 l 304 1021 z "},"Ŭ":{"ha":508,"x_min":0,"x_max":0,"o":"m 408 1210 b 319 1154 385 1186 357 1167 b 256 1144 301 1147 279 1144 b 143 1176 207 1144 169 1160 b 103 1210 128 1186 114 1197 l 178 1274 b 222 1246 188 1261 203 1251 b 256 1242 232 1243 243 1242 b 315 1257 282 1242 300 1247 b 336 1274 324 1261 331 1267 z m 454 1021 l 454 210 b 429 99 453 168 444 131 b 369 24 417 71 397 44 b 254 -11 342 1 304 -11 b 138 24 204 -11 165 1 b 79 99 110 44 92 71 b 54 210 64 131 56 168 l 54 1021 l 204 1021 l 204 210 b 225 146 204 181 211 161 b 254 135 232 139 242 135 b 299 172 281 135 293 151 b 304 210 303 182 304 194 l 304 1021 z "},"Û":{"ha":508,"x_min":0,"x_max":0,"o":"m 329 1236 l 425 1111 l 297 1111 l 254 1160 l 213 1111 l 85 1111 l 181 1236 z m 454 1021 l 454 210 b 429 99 453 168 444 131 b 369 24 417 71 397 44 b 254 -11 342 1 304 -11 b 138 24 204 -11 165 1 b 79 99 110 44 92 71 b 54 210 64 131 56 168 l 54 1021 l 204 1021 l 204 210 b 225 146 204 181 211 161 b 254 135 232 139 242 135 b 299 172 281 135 293 151 b 304 210 303 182 304 194 l 304 1021 z "},"Ü":{"ha":508,"x_min":0,"x_max":0,"o":"m 92 1247 l 221 1247 l 221 1111 l 92 1111 z m 288 1247 l 417 1247 l 417 1111 l 288 1111 z m 454 1021 l 454 210 b 429 99 453 168 444 131 b 369 24 417 71 397 44 b 254 -11 342 1 304 -11 b 138 24 204 -11 165 1 b 79 99 110 44 92 71 b 54 210 64 131 56 168 l 54 1021 l 204 1021 l 204 210 b 225 146 204 181 211 161 b 254 135 232 139 242 135 b 299 172 281 135 293 151 b 304 210 303 182 304 194 l 304 1021 z "},"Ù":{"ha":508,"x_min":0,"x_max":0,"o":"m 244 1236 l 317 1111 l 208 1111 l 99 1236 z m 454 1021 l 454 210 b 429 99 453 168 444 131 b 369 24 417 71 397 44 b 254 -11 342 1 304 -11 b 138 24 204 -11 165 1 b 79 99 110 44 92 71 b 54 210 64 131 56 168 l 54 1021 l 204 1021 l 204 210 b 225 146 204 181 211 161 b 254 135 232 139 242 135 b 299 172 281 135 293 151 b 304 210 303 182 304 194 l 304 1021 z "},"Ű":{"ha":508,"x_min":0,"x_max":0,"o":"m 263 1271 l 153 1146 l 44 1146 l 117 1271 z m 468 1271 l 358 1146 l 250 1146 l 322 1271 z m 454 1021 l 454 210 b 429 99 453 168 444 131 b 369 24 417 71 397 44 b 254 -11 342 1 304 -11 b 138 24 204 -11 165 1 b 79 99 110 44 92 71 b 54 210 64 131 56 168 l 54 1021 l 204 1021 l 204 210 b 225 146 204 181 211 161 b 254 135 232 139 242 135 b 299 172 281 135 293 151 b 304 210 303 182 304 194 l 304 1021 z "},"Ū":{"ha":508,"x_min":0,"x_max":0,"o":"m 121 1263 l 390 1263 l 390 1153 l 121 1153 z m 454 1021 l 454 210 b 429 99 453 168 444 131 b 369 24 417 71 397 44 b 254 -11 342 1 304 -11 b 138 24 204 -11 165 1 b 79 99 110 44 92 71 b 54 210 64 131 56 168 l 54 1021 l 204 1021 l 204 210 b 225 146 204 181 211 161 b 254 135 232 139 242 135 b 299 172 281 135 293 151 b 304 210 303 182 304 194 l 304 1021 z "},"Ų":{"ha":508,"x_min":0,"x_max":0,"o":"m 326 0 b 369 24 343 6 357 14 b 429 99 397 44 417 71 b 454 210 444 131 453 168 l 454 1021 l 304 1021 l 304 210 b 299 172 304 194 303 182 b 254 135 293 151 281 135 b 225 146 242 135 232 139 b 204 210 211 161 204 181 l 204 1021 l 54 1021 l 54 210 b 79 99 56 168 64 131 b 138 24 92 71 110 44 b 254 -11 165 1 204 -11 b 324 -1 281 -11 304 -7 b 279 -43 306 -14 292 -28 b 233 -143 256 -69 233 -104 b 375 -261 233 -206 285 -261 b 446 -249 399 -261 417 -258 l 457 -156 b 399 -168 440 -162 422 -168 b 329 -115 367 -168 329 -156 b 339 -69 329 -99 332 -83 b 392 0 351 -42 368 -21 z "},"Ů":{"ha":508,"x_min":0,"x_max":0,"o":"m 153 1225 b 257 1322 153 1282 200 1322 b 360 1225 314 1322 360 1282 b 257 1128 360 1168 314 1128 b 153 1225 200 1128 153 1168 z m 206 1225 b 257 1176 206 1199 231 1176 b 308 1225 283 1176 308 1199 b 257 1274 308 1251 283 1274 b 206 1225 231 1274 206 1251 z m 454 1021 l 454 210 b 429 99 453 168 444 131 b 369 24 417 71 397 44 b 254 -11 342 1 304 -11 b 138 24 204 -11 165 1 b 79 99 110 44 92 71 b 54 210 64 131 56 168 l 54 1021 l 204 1021 l 204 210 b 225 146 204 181 211 161 b 254 135 232 139 242 135 b 299 172 281 135 293 151 b 304 210 303 182 304 194 l 304 1021 z "},"Ũ":{"ha":508,"x_min":0,"x_max":0,"o":"m 121 1249 b 167 1271 133 1258 150 1265 b 194 1275 175 1274 185 1275 b 256 1264 215 1275 236 1271 b 317 1249 275 1256 296 1250 b 368 1260 338 1249 353 1254 b 390 1271 376 1264 383 1267 l 390 1168 b 344 1146 378 1157 361 1150 b 317 1142 336 1143 326 1142 b 257 1154 296 1142 275 1146 b 194 1168 238 1163 217 1167 b 143 1157 174 1168 158 1163 b 121 1146 135 1153 128 1150 z m 454 1021 l 454 210 b 429 99 453 168 444 131 b 369 24 417 71 397 44 b 254 -11 342 1 304 -11 b 138 24 204 -11 165 1 b 79 99 110 44 92 71 b 54 210 64 131 56 168 l 54 1021 l 204 1021 l 204 210 b 225 146 204 181 211 161 b 254 135 232 139 242 135 b 299 172 281 135 293 151 b 304 210 303 182 304 194 l 304 1021 z "},"V":{"ha":486,"x_min":0,"x_max":0,"o":"m 328 1021 l 474 1021 l 318 0 l 168 0 l 13 1021 l 158 1021 l 233 460 l 239 417 l 247 417 l 253 460 z "},"W":{"ha":703,"x_min":0,"x_max":0,"o":"m 271 0 l 154 0 l 17 1021 l 156 1021 l 215 490 l 218 457 l 229 457 l 233 490 l 297 1021 l 406 1021 l 469 490 l 474 457 l 485 457 l 488 490 l 547 1021 l 686 1021 l 549 0 l 432 0 l 363 483 l 354 543 l 349 543 l 340 483 z "},"Ŵ":{"ha":703,"x_min":0,"x_max":0,"o":"m 425 1271 l 521 1146 l 393 1146 l 350 1194 l 308 1146 l 181 1146 l 276 1271 z m 271 0 l 154 0 l 17 1021 l 156 1021 l 215 490 l 218 457 l 229 457 l 233 490 l 297 1021 l 406 1021 l 469 490 l 474 457 l 485 457 l 488 490 l 547 1021 l 686 1021 l 549 0 l 432 0 l 363 483 l 354 543 l 349 543 l 340 483 z "},"X":{"ha":500,"x_min":0,"x_max":0,"o":"m 158 0 l 11 0 l 176 536 l 14 1021 l 161 1021 l 243 763 l 247 750 l 253 750 l 257 763 l 339 1021 l 486 1021 l 324 536 l 489 0 l 342 0 l 256 304 l 253 317 l 247 317 l 244 304 z "},"Y":{"ha":475,"x_min":0,"x_max":0,"o":"m 232 694 l 236 685 l 239 685 l 243 694 l 318 1021 l 465 1021 l 313 435 l 313 0 l 163 0 l 163 435 l 10 1021 l 157 1021 z "},"Ý":{"ha":478,"x_min":0,"x_max":0,"o":"m 390 1236 l 281 1111 l 172 1111 l 244 1236 z m 233 694 l 238 685 l 240 685 l 244 694 l 319 1021 l 467 1021 l 314 435 l 314 0 l 164 0 l 164 435 l 11 1021 l 158 1021 z "},"Ŷ":{"ha":475,"x_min":0,"x_max":0,"o":"m 314 1271 l 410 1146 l 282 1146 l 239 1194 l 197 1146 l 69 1146 l 165 1271 z m 232 694 l 236 685 l 239 685 l 243 694 l 318 1021 l 465 1021 l 313 435 l 313 0 l 163 0 l 163 435 l 10 1021 l 157 1021 z "},"Ÿ":{"ha":478,"x_min":0,"x_max":0,"o":"m 76 1247 l 206 1247 l 206 1111 l 76 1111 z m 272 1247 l 401 1247 l 401 1111 l 272 1111 z m 233 694 l 238 685 l 240 685 l 244 694 l 319 1021 l 467 1021 l 314 435 l 314 0 l 164 0 l 164 435 l 11 1021 l 158 1021 z "},"Z":{"ha":425,"x_min":0,"x_max":0,"o":"m 14 161 l 249 872 l 47 872 l 47 1021 l 411 1021 l 411 872 l 172 149 l 411 149 l 411 0 l 14 0 z "},"Ź":{"ha":425,"x_min":0,"x_max":0,"o":"m 324 1271 l 214 1146 l 106 1146 l 178 1271 z m 14 161 l 249 872 l 47 872 l 47 1021 l 411 1021 l 411 872 l 172 149 l 411 149 l 411 0 l 14 0 z "},"Ž":{"ha":425,"x_min":0,"x_max":0,"o":"m 156 1111 l 60 1236 l 188 1236 l 229 1188 l 272 1236 l 400 1236 l 304 1111 z m 14 161 l 249 872 l 47 872 l 47 1021 l 411 1021 l 411 872 l 172 149 l 411 149 l 411 0 l 14 0 z "},"Ż":{"ha":425,"x_min":0,"x_max":0,"o":"m 144 1282 l 285 1282 l 285 1142 l 144 1142 z m 14 161 l 249 872 l 47 872 l 47 1021 l 411 1021 l 411 872 l 172 149 l 411 149 l 411 0 l 14 0 z "},"a":{"ha":449,"x_min":0,"x_max":0,"o":"m 268 579 b 264 625 268 592 268 611 b 229 649 258 639 247 649 b 192 608 206 649 196 631 b 189 572 190 597 189 585 b 189 536 189 560 189 547 l 49 536 l 49 568 b 103 711 49 624 69 674 b 238 771 136 749 183 771 b 357 722 283 771 325 753 b 408 599 389 692 408 649 l 408 132 b 418 0 408 64 413 33 l 281 0 b 268 61 268 15 268 51 l 258 61 b 219 15 251 49 239 31 b 146 -11 200 0 174 -11 b 76 24 128 -11 99 -4 b 33 176 53 50 33 97 b 92 364 33 261 58 322 b 201 450 125 406 167 432 b 268 496 236 468 263 481 z m 268 367 b 171 197 200 338 171 269 b 178 156 171 188 172 171 b 210 126 183 139 193 126 b 268 172 242 126 268 146 z "},"á":{"ha":463,"x_min":0,"x_max":0,"o":"m 397 1010 l 288 885 l 179 885 l 251 1010 z m 268 579 b 264 625 268 592 268 611 b 229 649 258 639 247 649 b 192 608 206 649 196 631 b 189 572 190 597 189 585 b 189 536 189 560 189 547 l 49 536 l 49 568 b 103 711 49 624 69 674 b 238 771 136 749 183 771 b 357 722 283 771 325 753 b 408 599 389 692 408 649 l 408 132 b 418 0 408 64 413 33 l 281 0 b 268 61 268 15 268 51 l 258 61 b 219 15 251 49 239 31 b 146 -11 200 0 174 -11 b 76 24 128 -11 99 -4 b 33 176 53 50 33 97 b 92 364 33 261 58 322 b 201 450 125 406 167 432 b 268 496 236 468 263 481 z m 268 367 b 171 197 200 338 171 269 b 178 156 171 188 172 171 b 210 126 183 139 193 126 b 268 172 242 126 268 146 z "},"ă":{"ha":463,"x_min":0,"x_max":0,"o":"m 386 949 b 297 893 363 925 335 906 b 233 883 279 886 257 883 b 121 915 185 883 147 899 b 81 949 106 925 92 936 l 156 1013 b 200 985 165 1000 181 990 b 233 981 210 982 221 981 b 293 996 260 981 278 986 b 314 1013 301 1000 308 1006 z m 268 579 b 264 625 268 592 268 611 b 229 649 258 639 247 649 b 192 608 206 649 196 631 b 189 572 190 597 189 585 b 189 536 189 560 189 547 l 49 536 l 49 568 b 103 711 49 624 69 674 b 238 771 136 749 183 771 b 357 722 283 771 325 753 b 408 599 389 692 408 649 l 408 132 b 418 0 408 64 413 33 l 281 0 b 268 61 268 15 268 51 l 258 61 b 219 15 251 49 239 31 b 146 -11 200 0 174 -11 b 76 24 128 -11 99 -4 b 33 176 53 50 33 97 b 92 364 33 261 58 322 b 201 450 125 406 167 432 b 268 496 236 468 263 481 z m 268 367 b 171 197 200 338 171 269 b 178 156 171 188 172 171 b 210 126 183 139 193 126 b 268 172 242 126 268 146 z "},"â":{"ha":463,"x_min":0,"x_max":0,"o":"m 306 1010 l 401 885 l 274 885 l 231 933 l 189 885 l 61 885 l 157 1010 z m 268 579 b 264 625 268 592 268 611 b 229 649 258 639 247 649 b 192 608 206 649 196 631 b 189 572 190 597 189 585 b 189 536 189 560 189 547 l 49 536 l 49 568 b 103 711 49 624 69 674 b 238 771 136 749 183 771 b 357 722 283 771 325 753 b 408 599 389 692 408 649 l 408 132 b 418 0 408 64 413 33 l 281 0 b 268 61 268 15 268 51 l 258 61 b 219 15 251 49 239 31 b 146 -11 200 0 174 -11 b 76 24 128 -11 99 -4 b 33 176 53 50 33 97 b 92 364 33 261 58 322 b 201 450 125 406 167 432 b 268 496 236 468 263 481 z m 268 367 b 171 197 200 338 171 269 b 178 156 171 188 172 171 b 210 126 183 139 193 126 b 268 172 242 126 268 146 z "},"ä":{"ha":463,"x_min":0,"x_max":0,"o":"m 69 1021 l 199 1021 l 199 885 l 69 885 z m 265 1021 l 394 1021 l 394 885 l 265 885 z m 268 579 b 264 625 268 592 268 611 b 229 649 258 639 247 649 b 192 608 206 649 196 631 b 189 572 190 597 189 585 b 189 536 189 560 189 547 l 49 536 l 49 568 b 103 711 49 624 69 674 b 238 771 136 749 183 771 b 357 722 283 771 325 753 b 408 599 389 692 408 649 l 408 132 b 418 0 408 64 413 33 l 281 0 b 268 61 268 15 268 51 l 258 61 b 219 15 251 49 239 31 b 146 -11 200 0 174 -11 b 76 24 128 -11 99 -4 b 33 176 53 50 33 97 b 92 364 33 261 58 322 b 201 450 125 406 167 432 b 268 496 236 468 263 481 z m 268 367 b 171 197 200 338 171 269 b 178 156 171 188 172 171 b 210 126 183 139 193 126 b 268 172 242 126 268 146 z "},"à":{"ha":463,"x_min":0,"x_max":0,"o":"m 215 1010 l 288 885 l 179 885 l 69 1010 z m 268 579 b 264 625 268 592 268 611 b 229 649 258 639 247 649 b 192 608 206 649 196 631 b 189 572 190 597 189 585 b 189 536 189 560 189 547 l 49 536 l 49 568 b 103 711 49 624 69 674 b 238 771 136 749 183 771 b 357 722 283 771 325 753 b 408 599 389 692 408 649 l 408 132 b 418 0 408 64 413 33 l 281 0 b 268 61 268 15 268 51 l 258 61 b 219 15 251 49 239 31 b 146 -11 200 0 174 -11 b 76 24 128 -11 99 -4 b 33 176 53 50 33 97 b 92 364 33 261 58 322 b 201 450 125 406 167 432 b 268 496 236 468 263 481 z m 268 367 b 171 197 200 338 171 269 b 178 156 171 188 172 171 b 210 126 183 139 193 126 b 268 172 242 126 268 146 z "},"ā":{"ha":463,"x_min":0,"x_max":0,"o":"m 99 1001 l 368 1001 l 368 892 l 99 892 z m 268 579 b 264 625 268 592 268 611 b 229 649 258 639 247 649 b 192 608 206 649 196 631 b 189 572 190 597 189 585 b 189 536 189 560 189 547 l 49 536 l 49 568 b 103 711 49 624 69 674 b 238 771 136 749 183 771 b 357 722 283 771 325 753 b 408 599 389 692 408 649 l 408 132 b 418 0 408 64 413 33 l 281 0 b 268 61 268 15 268 51 l 258 61 b 219 15 251 49 239 31 b 146 -11 200 0 174 -11 b 76 24 128 -11 99 -4 b 33 176 53 50 33 97 b 92 364 33 261 58 322 b 201 450 125 406 167 432 b 268 496 236 468 263 481 z m 268 367 b 171 197 200 338 171 269 b 178 156 171 188 172 171 b 210 126 183 139 193 126 b 268 172 242 126 268 146 z "},"ą":{"ha":463,"x_min":0,"x_max":0,"o":"m 418 0 b 408 132 413 33 408 64 l 408 599 b 357 722 408 649 389 692 b 238 771 325 753 283 771 b 103 711 183 771 136 749 b 49 568 69 674 49 624 l 49 536 l 189 536 b 189 572 189 547 189 560 b 192 608 189 585 190 597 b 229 649 196 631 206 649 b 264 625 247 649 258 639 b 268 579 268 611 268 592 l 268 496 b 201 450 263 481 236 468 b 92 364 167 432 125 406 b 33 176 58 322 33 261 b 76 24 33 97 53 50 b 146 -11 99 -4 128 -11 b 219 15 174 -11 200 0 b 258 61 239 31 251 49 l 268 61 b 281 0 268 51 268 15 l 288 0 b 242 -43 269 -12 254 -28 b 196 -143 218 -69 196 -104 b 338 -261 196 -206 247 -261 b 408 -249 361 -261 379 -258 l 419 -156 b 361 -168 403 -162 385 -168 b 292 -115 329 -168 292 -156 b 301 -69 292 -99 294 -83 b 354 0 314 -42 331 -21 z m 268 172 b 210 126 268 146 242 126 b 178 156 193 126 183 139 b 171 197 172 171 171 188 b 268 367 171 269 200 338 z "},"å":{"ha":463,"x_min":0,"x_max":0,"o":"m 128 964 b 232 1061 128 1021 175 1061 b 335 964 289 1061 335 1021 b 232 867 335 907 289 867 b 128 964 175 867 128 907 z m 181 964 b 232 915 181 938 206 915 b 283 964 258 915 283 938 b 232 1013 283 990 258 1013 b 181 964 206 1013 181 990 z m 268 579 b 264 625 268 592 268 611 b 229 649 258 639 247 649 b 192 608 206 649 196 631 b 189 572 190 597 189 585 b 189 536 189 560 189 547 l 49 536 l 49 568 b 103 711 49 624 69 674 b 238 771 136 749 183 771 b 357 722 283 771 325 753 b 408 599 389 692 408 649 l 408 132 b 418 0 408 64 413 33 l 281 0 b 268 61 268 15 268 51 l 258 61 b 219 15 251 49 239 31 b 146 -11 200 0 174 -11 b 76 24 128 -11 99 -4 b 33 176 53 50 33 97 b 92 364 33 261 58 322 b 201 450 125 406 167 432 b 268 496 236 468 263 481 z m 268 367 b 171 197 200 338 171 269 b 178 156 171 188 172 171 b 210 126 183 139 193 126 b 268 172 242 126 268 146 z "},"ã":{"ha":463,"x_min":0,"x_max":0,"o":"m 97 988 b 143 1010 110 997 126 1004 b 171 1014 151 1013 161 1014 b 232 1003 192 1014 213 1010 b 293 988 251 994 272 989 b 344 999 314 988 329 993 b 367 1010 353 1003 360 1006 l 367 907 b 321 885 354 896 338 889 b 293 881 313 882 303 881 b 233 893 272 881 251 885 b 171 907 214 901 193 906 b 119 896 150 907 135 901 b 97 885 111 892 104 889 z m 268 579 b 264 625 268 592 268 611 b 229 649 258 639 247 649 b 192 608 206 649 196 631 b 189 572 190 597 189 585 b 189 536 189 560 189 547 l 49 536 l 49 568 b 103 711 49 624 69 674 b 238 771 136 749 183 771 b 357 722 283 771 325 753 b 408 599 389 692 408 649 l 408 132 b 418 0 408 64 413 33 l 281 0 b 268 61 268 15 268 51 l 258 61 b 219 15 251 49 239 31 b 146 -11 200 0 174 -11 b 76 24 128 -11 99 -4 b 33 176 53 50 33 97 b 92 364 33 261 58 322 b 201 450 125 406 167 432 b 268 496 236 468 263 481 z m 268 367 b 171 197 200 338 171 269 b 178 156 171 188 172 171 b 210 126 183 139 193 126 b 268 172 242 126 268 146 z "},"æ":{"ha":671,"x_min":0,"x_max":0,"o":"m 631 272 l 631 185 b 554 19 626 111 604 60 b 449 -11 529 -1 494 -11 b 296 78 364 -11 319 32 b 146 -11 257 28 207 -11 b 76 24 128 -11 99 -4 b 33 176 53 50 33 97 b 92 364 33 261 58 322 b 201 450 125 406 167 432 b 268 496 236 468 263 481 l 268 579 b 264 625 268 592 268 611 b 229 649 258 639 247 649 b 192 608 206 649 196 631 b 189 572 190 597 189 585 b 189 536 189 560 189 547 l 49 536 l 49 568 b 103 711 49 624 69 674 b 238 771 136 749 183 771 b 340 736 275 771 310 760 b 450 771 367 757 401 771 b 608 672 540 771 586 721 b 631 575 621 643 629 611 l 631 354 l 399 354 l 399 189 b 421 124 400 160 408 139 b 450 113 428 117 438 113 b 494 150 476 113 489 129 b 500 189 499 161 500 174 l 500 272 z m 399 464 l 500 464 l 500 571 b 481 638 500 600 494 621 b 450 649 474 644 463 649 b 406 610 424 649 413 631 b 399 571 401 599 400 586 z m 268 367 b 171 197 200 338 171 269 b 178 156 171 188 172 171 b 210 126 183 139 193 126 b 268 172 242 126 268 146 z "},"b":{"ha":465,"x_min":0,"x_max":0,"o":"m 56 1021 l 196 1021 l 196 710 b 268 761 219 732 240 749 b 307 771 281 768 294 771 b 390 721 346 771 372 749 b 415 622 407 692 415 654 l 415 138 b 390 40 415 106 407 68 b 307 -11 372 11 346 -11 b 232 19 281 -11 253 4 b 196 50 219 29 208 39 l 196 0 l 56 0 z m 196 167 b 238 121 196 140 217 121 b 275 167 258 121 275 140 l 275 593 b 238 639 275 619 258 639 b 196 593 217 639 196 615 z "},"c":{"ha":438,"x_min":0,"x_max":0,"o":"m 185 175 b 224 114 185 147 186 114 b 264 175 256 114 264 129 l 264 281 l 404 281 l 404 207 b 358 35 404 122 389 68 b 224 -11 328 1 283 -11 b 96 38 174 -11 128 3 b 44 214 64 72 44 129 l 44 546 b 96 722 44 631 64 688 b 224 771 128 757 174 771 b 358 725 283 771 328 758 b 404 553 389 692 404 638 l 404 493 l 264 493 l 264 585 b 224 646 264 631 256 646 b 185 585 186 646 185 613 z "},"ć":{"ha":438,"x_min":0,"x_max":0,"o":"m 329 1010 l 219 885 l 111 885 l 183 1010 z m 185 175 b 224 114 185 147 186 114 b 264 175 256 114 264 129 l 264 281 l 404 281 l 404 207 b 358 35 404 122 389 68 b 224 -11 328 1 283 -11 b 96 38 174 -11 128 3 b 44 214 64 72 44 129 l 44 546 b 96 722 44 631 64 688 b 224 771 128 757 174 771 b 358 725 283 771 328 758 b 404 553 389 692 404 638 l 404 493 l 264 493 l 264 585 b 224 646 264 631 256 646 b 185 585 186 646 185 613 z "},"č":{"ha":438,"x_min":0,"x_max":0,"o":"m 146 885 l 50 1010 l 178 1010 l 219 961 l 263 1010 l 390 1010 l 294 885 z m 185 175 b 224 114 185 147 186 114 b 264 175 256 114 264 129 l 264 281 l 404 281 l 404 207 b 358 35 404 122 389 68 b 224 -11 328 1 283 -11 b 96 38 174 -11 128 3 b 44 214 64 72 44 129 l 44 546 b 96 722 44 631 64 688 b 224 771 128 757 174 771 b 358 725 283 771 328 758 b 404 553 389 692 404 638 l 404 493 l 264 493 l 264 585 b 224 646 264 631 256 646 b 185 585 186 646 185 613 z "},"ç":{"ha":438,"x_min":0,"x_max":0,"o":"m 185 175 b 224 114 185 147 186 114 b 264 175 256 114 264 129 l 264 281 l 404 281 l 404 207 b 358 35 404 122 389 68 b 224 -11 328 1 283 -11 b 96 38 174 -11 128 3 b 44 214 64 72 44 129 l 44 546 b 96 722 44 631 64 688 b 224 771 128 757 174 771 b 358 725 283 771 328 758 b 404 553 389 692 404 638 l 404 493 l 264 493 l 264 585 b 224 646 264 631 256 646 b 185 585 186 646 185 613 z m 278 -171 l 247 -261 l 176 -261 l 204 -171 l 161 -171 l 161 -75 l 278 -75 z "},"ĉ":{"ha":438,"x_min":0,"x_max":0,"o":"m 294 1010 l 390 885 l 263 885 l 219 933 l 178 885 l 50 885 l 146 1010 z m 185 175 b 224 114 185 147 186 114 b 264 175 256 114 264 129 l 264 281 l 404 281 l 404 207 b 358 35 404 122 389 68 b 224 -11 328 1 283 -11 b 96 38 174 -11 128 3 b 44 214 64 72 44 129 l 44 546 b 96 722 44 631 64 688 b 224 771 128 757 174 771 b 358 725 283 771 328 758 b 404 553 389 692 404 638 l 404 493 l 264 493 l 264 585 b 224 646 264 631 256 646 b 185 585 186 646 185 613 z "},"ċ":{"ha":438,"x_min":0,"x_max":0,"o":"m 150 1021 l 290 1021 l 290 881 l 150 881 z m 185 175 b 224 114 185 147 186 114 b 264 175 256 114 264 129 l 264 281 l 404 281 l 404 207 b 358 35 404 122 389 68 b 224 -11 328 1 283 -11 b 96 38 174 -11 128 3 b 44 214 64 72 44 129 l 44 546 b 96 722 44 631 64 688 b 224 771 128 757 174 771 b 358 725 283 771 328 758 b 404 553 389 692 404 638 l 404 493 l 264 493 l 264 585 b 224 646 264 631 256 646 b 185 585 186 646 185 613 z "},"d":{"ha":465,"x_min":0,"x_max":0,"o":"m 410 0 l 269 0 l 269 50 b 199 -1 246 28 225 11 b 158 -11 185 -8 171 -11 b 76 40 119 -11 93 11 b 50 138 58 68 50 106 l 50 622 b 76 721 50 654 58 692 b 158 771 93 749 119 771 b 233 740 185 771 213 756 b 269 710 246 731 257 721 l 269 1021 l 410 1021 z m 269 593 b 228 639 269 615 249 639 b 190 593 207 639 190 619 l 190 167 b 228 121 190 140 207 121 b 269 167 249 121 269 140 z "},"ð":{"ha":457,"x_min":0,"x_max":0,"o":"m 257 1022 b 268 1010 261 1018 264 1014 b 281 997 272 1006 276 1001 b 293 981 285 992 289 986 l 357 1036 l 394 992 l 326 932 b 411 629 369 865 411 768 l 411 185 b 336 19 407 111 385 60 b 231 -11 311 -1 276 -11 b 74 89 140 -11 96 39 b 51 189 61 118 53 151 l 51 582 b 65 688 51 594 51 643 b 168 771 79 731 107 771 b 274 718 200 771 236 750 b 239 856 267 775 254 821 l 183 807 l 146 850 l 214 910 b 192 943 204 925 197 936 b 183 954 188 947 185 950 z m 279 571 b 261 638 281 600 275 621 b 231 649 254 644 243 649 b 188 610 204 649 193 631 b 183 571 183 599 182 586 l 183 189 b 201 124 182 160 189 139 b 231 113 208 117 218 113 b 275 150 257 113 269 129 b 279 189 279 161 281 174 z "},"ď":{"ha":675,"x_min":0,"x_max":0,"o":"m 410 0 l 269 0 l 269 50 b 199 -1 246 28 225 11 b 158 -11 185 -8 171 -11 b 76 40 119 -11 93 11 b 50 138 58 68 50 106 l 50 622 b 76 721 50 654 58 692 b 158 771 93 749 119 771 b 233 740 185 771 213 756 b 269 710 246 731 257 721 l 269 1021 l 410 1021 z m 642 867 l 565 686 l 496 686 l 544 867 l 496 867 l 496 1021 l 642 1021 z m 269 593 b 228 639 269 615 249 639 b 190 593 207 639 190 619 l 190 167 b 228 121 190 140 207 121 b 269 167 249 121 269 140 z "},"đ":{"ha":465,"x_min":0,"x_max":0,"o":"m 442 961 l 410 961 l 410 1021 l 269 1021 l 269 961 l 240 961 l 240 829 l 269 829 l 269 710 b 233 740 257 721 246 731 b 158 771 213 756 185 771 b 76 721 119 771 93 749 b 50 622 58 692 50 654 l 50 138 b 76 40 50 106 58 68 b 158 -11 93 11 119 -11 b 199 -1 171 -11 185 -8 b 269 50 225 11 246 28 l 269 0 l 410 0 l 410 829 l 442 829 z m 269 167 b 228 121 269 140 249 121 b 190 167 207 121 190 140 l 190 593 b 228 639 190 619 207 639 b 269 593 249 639 269 615 z "},"e":{"ha":447,"x_min":0,"x_max":0,"o":"m 407 272 l 407 185 b 331 19 403 111 381 60 b 225 -11 306 -1 271 -11 b 67 89 135 -11 89 39 b 44 189 54 118 46 151 l 44 571 b 122 740 49 644 72 699 b 226 771 146 761 181 771 b 385 672 317 771 363 721 b 407 575 397 643 406 611 l 407 354 l 175 354 l 175 189 b 197 124 176 160 185 139 b 226 113 204 117 214 113 b 271 150 253 113 265 129 b 276 189 275 161 276 174 l 276 272 z m 175 464 l 276 464 l 276 571 b 257 638 276 600 271 621 b 226 649 250 644 239 649 b 182 610 200 649 189 631 b 175 571 178 599 176 586 z "},"é":{"ha":447,"x_min":0,"x_max":0,"o":"m 397 1010 l 288 885 l 179 885 l 251 1010 z m 407 272 l 407 185 b 331 19 403 111 381 60 b 225 -11 306 -1 271 -11 b 67 89 135 -11 89 39 b 44 189 54 118 46 151 l 44 571 b 122 740 49 644 72 699 b 226 771 146 761 181 771 b 385 672 317 771 363 721 b 407 575 397 643 406 611 l 407 354 l 175 354 l 175 189 b 197 124 176 160 185 139 b 226 113 204 117 214 113 b 271 150 253 113 265 129 b 276 189 275 161 276 174 l 276 272 z m 175 464 l 276 464 l 276 571 b 257 638 276 600 271 621 b 226 649 250 644 239 649 b 182 610 200 649 189 631 b 175 571 178 599 176 586 z "},"ĕ":{"ha":447,"x_min":0,"x_max":0,"o":"m 378 949 b 289 893 354 925 326 906 b 225 883 271 886 249 883 b 113 915 176 883 139 899 b 72 949 97 925 83 936 l 147 1013 b 192 985 157 1000 172 990 b 225 981 201 982 213 981 b 285 996 251 981 269 986 b 306 1013 293 1000 300 1006 z m 407 272 l 407 185 b 331 19 403 111 381 60 b 225 -11 306 -1 271 -11 b 67 89 135 -11 89 39 b 44 189 54 118 46 151 l 44 571 b 122 740 49 644 72 699 b 226 771 146 761 181 771 b 385 672 317 771 363 721 b 407 575 397 643 406 611 l 407 354 l 175 354 l 175 189 b 197 124 176 160 185 139 b 226 113 204 117 214 113 b 271 150 253 113 265 129 b 276 189 275 161 276 174 l 276 272 z m 175 464 l 276 464 l 276 571 b 257 638 276 600 271 621 b 226 649 250 644 239 649 b 182 610 200 649 189 631 b 175 571 178 599 176 586 z "},"ě":{"ha":447,"x_min":0,"x_max":0,"o":"m 151 885 l 56 1010 l 183 1010 l 225 961 l 268 1010 l 396 1010 l 300 885 z m 407 272 l 407 185 b 331 19 403 111 381 60 b 225 -11 306 -1 271 -11 b 67 89 135 -11 89 39 b 44 189 54 118 46 151 l 44 571 b 122 740 49 644 72 699 b 226 771 146 761 181 771 b 385 672 317 771 363 721 b 407 575 397 643 406 611 l 407 354 l 175 354 l 175 189 b 197 124 176 160 185 139 b 226 113 204 117 214 113 b 271 150 253 113 265 129 b 276 189 275 161 276 174 l 276 272 z m 175 464 l 276 464 l 276 571 b 257 638 276 600 271 621 b 226 649 250 644 239 649 b 182 610 200 649 189 631 b 175 571 178 599 176 586 z "},"ê":{"ha":447,"x_min":0,"x_max":0,"o":"m 299 1010 l 394 885 l 267 885 l 224 933 l 182 885 l 54 885 l 150 1010 z m 407 272 l 407 185 b 331 19 403 111 381 60 b 225 -11 306 -1 271 -11 b 67 89 135 -11 89 39 b 44 189 54 118 46 151 l 44 571 b 122 740 49 644 72 699 b 226 771 146 761 181 771 b 385 672 317 771 363 721 b 407 575 397 643 406 611 l 407 354 l 175 354 l 175 189 b 197 124 176 160 185 139 b 226 113 204 117 214 113 b 271 150 253 113 265 129 b 276 189 275 161 276 174 l 276 272 z m 175 464 l 276 464 l 276 571 b 257 638 276 600 271 621 b 226 649 250 644 239 649 b 182 610 200 649 189 631 b 175 571 178 599 176 586 z "},"ë":{"ha":447,"x_min":0,"x_max":0,"o":"m 61 1021 l 190 1021 l 190 885 l 61 885 z m 257 1021 l 386 1021 l 386 885 l 257 885 z m 407 272 l 407 185 b 331 19 403 111 381 60 b 225 -11 306 -1 271 -11 b 67 89 135 -11 89 39 b 44 189 54 118 46 151 l 44 571 b 122 740 49 644 72 699 b 226 771 146 761 181 771 b 385 672 317 771 363 721 b 407 575 397 643 406 611 l 407 354 l 175 354 l 175 189 b 197 124 176 160 185 139 b 226 113 204 117 214 113 b 271 150 253 113 265 129 b 276 189 275 161 276 174 l 276 272 z m 175 464 l 276 464 l 276 571 b 257 638 276 600 271 621 b 226 649 250 644 239 649 b 182 610 200 649 189 631 b 175 571 178 599 176 586 z "},"ė":{"ha":447,"x_min":0,"x_max":0,"o":"m 156 1021 l 296 1021 l 296 881 l 156 881 z m 407 272 l 407 185 b 331 19 403 111 381 60 b 225 -11 306 -1 271 -11 b 67 89 135 -11 89 39 b 44 189 54 118 46 151 l 44 571 b 122 740 49 644 72 699 b 226 771 146 761 181 771 b 385 672 317 771 363 721 b 407 575 397 643 406 611 l 407 354 l 175 354 l 175 189 b 197 124 176 160 185 139 b 226 113 204 117 214 113 b 271 150 253 113 265 129 b 276 189 275 161 276 174 l 276 272 z m 175 464 l 276 464 l 276 571 b 257 638 276 600 271 621 b 226 649 250 644 239 649 b 182 610 200 649 189 631 b 175 571 178 599 176 586 z "},"è":{"ha":447,"x_min":0,"x_max":0,"o":"m 215 1010 l 288 885 l 179 885 l 69 1010 z m 407 272 l 407 185 b 331 19 403 111 381 60 b 225 -11 306 -1 271 -11 b 67 89 135 -11 89 39 b 44 189 54 118 46 151 l 44 571 b 122 740 49 644 72 699 b 226 771 146 761 181 771 b 385 672 317 771 363 721 b 407 575 397 643 406 611 l 407 354 l 175 354 l 175 189 b 197 124 176 160 185 139 b 226 113 204 117 214 113 b 271 150 253 113 265 129 b 276 189 275 161 276 174 l 276 272 z m 175 464 l 276 464 l 276 571 b 257 638 276 600 271 621 b 226 649 250 644 239 649 b 182 610 200 649 189 631 b 175 571 178 599 176 586 z "},"ē":{"ha":447,"x_min":0,"x_max":0,"o":"m 90 1001 l 360 1001 l 360 892 l 90 892 z m 407 272 l 407 185 b 331 19 403 111 381 60 b 225 -11 306 -1 271 -11 b 67 89 135 -11 89 39 b 44 189 54 118 46 151 l 44 571 b 122 740 49 644 72 699 b 226 771 146 761 181 771 b 385 672 317 771 363 721 b 407 575 397 643 406 611 l 407 354 l 175 354 l 175 189 b 197 124 176 160 185 139 b 226 113 204 117 214 113 b 271 150 253 113 265 129 b 276 189 275 161 276 174 l 276 272 z m 175 464 l 276 464 l 276 571 b 257 638 276 600 271 621 b 226 649 250 644 239 649 b 182 610 200 649 189 631 b 175 571 178 599 176 586 z "},"ę":{"ha":447,"x_min":0,"x_max":0,"o":"m 297 0 b 331 19 310 4 321 11 b 407 185 381 60 403 111 l 407 272 l 276 272 l 276 189 b 271 150 276 174 275 161 b 226 113 265 129 253 113 b 197 124 214 113 204 117 b 175 189 185 139 176 160 l 175 354 l 407 354 l 407 575 b 385 672 406 611 397 643 b 226 771 363 721 317 771 b 122 740 181 771 146 761 b 44 571 72 699 49 644 l 44 189 b 67 89 46 151 54 118 b 225 -11 89 39 135 -11 b 267 -8 240 -11 254 -10 b 232 -43 254 -18 242 -31 b 186 -143 208 -69 186 -104 b 328 -261 186 -206 238 -261 b 399 -249 351 -261 369 -258 l 410 -156 b 351 -168 393 -162 375 -168 b 282 -115 319 -168 282 -156 b 292 -69 282 -99 285 -83 b 344 0 304 -42 321 -21 z m 175 571 b 182 610 176 586 178 599 b 226 649 189 631 200 649 b 257 638 239 649 250 644 b 276 571 271 621 276 600 l 276 464 l 175 464 z "},"f":{"ha":322,"x_min":0,"x_max":0,"o":"m 85 0 l 85 633 l 14 633 l 14 760 l 85 760 l 85 781 b 106 933 85 819 86 882 b 246 1026 125 985 164 1026 b 294 1021 268 1026 283 1025 l 311 1017 l 311 896 b 299 899 307 897 303 897 b 269 901 289 900 279 901 b 229 854 246 901 235 881 b 225 813 226 840 225 826 b 225 779 225 799 225 788 l 225 760 l 296 760 l 296 633 l 225 633 l 225 0 z "},"g":{"ha":475,"x_min":0,"x_max":0,"o":"m 399 367 b 321 208 394 296 369 246 b 218 179 296 189 261 179 b 206 179 214 179 210 179 b 192 181 201 179 196 179 b 172 146 179 169 172 158 b 207 114 172 129 186 119 b 279 99 228 107 253 103 b 410 56 324 93 371 82 b 474 -78 447 29 474 -11 b 397 -231 474 -151 442 -201 b 233 -272 351 -260 290 -272 b 71 -239 167 -271 110 -261 b 8 -125 31 -217 8 -181 b 43 -57 8 -99 22 -76 b 118 -10 64 -37 92 -22 b 33 92 72 3 33 32 b 63 157 33 114 46 136 b 121 206 79 178 100 194 b 51 308 81 232 61 274 b 40 371 46 329 42 350 l 40 578 b 117 740 46 649 68 700 b 218 771 140 761 175 771 b 358 701 289 771 332 739 b 407 743 368 711 385 728 b 474 771 428 758 451 771 l 474 646 b 392 629 436 646 408 639 b 396 611 393 622 394 615 b 397 596 396 606 396 600 b 399 582 399 592 399 586 z m 261 572 b 244 631 261 599 256 615 b 218 642 239 638 231 642 b 181 607 196 642 185 624 b 178 572 178 597 176 585 l 178 364 b 193 307 176 338 181 321 b 218 296 199 300 207 296 b 257 329 242 296 251 313 b 261 364 260 339 261 351 z m 196 -35 b 144 -101 167 -51 144 -72 b 236 -154 144 -131 171 -154 b 307 -142 260 -154 286 -150 b 343 -103 328 -133 343 -121 b 332 -71 343 -90 342 -81 b 268 -49 321 -61 303 -54 z "},"ğ":{"ha":475,"x_min":0,"x_max":0,"o":"m 392 949 b 303 893 368 925 340 906 b 239 883 285 886 263 883 b 126 915 190 883 153 899 b 86 949 111 925 97 936 l 161 1013 b 206 985 171 1000 186 990 b 239 981 215 982 226 981 b 299 996 265 981 283 986 b 319 1013 307 1000 314 1006 z m 399 367 b 321 208 394 296 369 246 b 218 179 296 189 261 179 b 206 179 214 179 210 179 b 192 181 201 179 196 179 b 172 146 179 169 172 158 b 207 114 172 129 186 119 b 279 99 228 107 253 103 b 410 56 324 93 371 82 b 474 -78 447 29 474 -11 b 397 -231 474 -151 442 -201 b 233 -272 351 -260 290 -272 b 71 -239 167 -271 110 -261 b 8 -125 31 -217 8 -181 b 43 -57 8 -99 22 -76 b 118 -10 64 -37 92 -22 b 33 92 72 3 33 32 b 63 157 33 114 46 136 b 121 206 79 178 100 194 b 51 308 81 232 61 274 b 40 371 46 329 42 350 l 40 578 b 117 740 46 649 68 700 b 218 771 140 761 175 771 b 358 701 289 771 332 739 b 407 743 368 711 385 728 b 474 771 428 758 451 771 l 474 646 b 392 629 436 646 408 639 b 396 611 393 622 394 615 b 397 596 396 606 396 600 b 399 582 399 592 399 586 z m 261 572 b 244 631 261 599 256 615 b 218 642 239 638 231 642 b 181 607 196 642 185 624 b 178 572 178 597 176 585 l 178 364 b 193 307 176 338 181 321 b 218 296 199 300 207 296 b 257 329 242 296 251 313 b 261 364 260 339 261 351 z m 196 -35 b 144 -101 167 -51 144 -72 b 236 -154 144 -131 171 -154 b 307 -142 260 -154 286 -150 b 343 -103 328 -133 343 -121 b 332 -71 343 -90 342 -81 b 268 -49 321 -61 303 -54 z "},"ĝ":{"ha":475,"x_min":0,"x_max":0,"o":"m 314 1010 l 410 885 l 282 885 l 239 933 l 197 885 l 69 885 l 165 1010 z m 399 367 b 321 208 394 296 369 246 b 218 179 296 189 261 179 b 206 179 214 179 210 179 b 192 181 201 179 196 179 b 172 146 179 169 172 158 b 207 114 172 129 186 119 b 279 99 228 107 253 103 b 410 56 324 93 371 82 b 474 -78 447 29 474 -11 b 397 -231 474 -151 442 -201 b 233 -272 351 -260 290 -272 b 71 -239 167 -271 110 -261 b 8 -125 31 -217 8 -181 b 43 -57 8 -99 22 -76 b 118 -10 64 -37 92 -22 b 33 92 72 3 33 32 b 63 157 33 114 46 136 b 121 206 79 178 100 194 b 51 308 81 232 61 274 b 40 371 46 329 42 350 l 40 578 b 117 740 46 649 68 700 b 218 771 140 761 175 771 b 358 701 289 771 332 739 b 407 743 368 711 385 728 b 474 771 428 758 451 771 l 474 646 b 392 629 436 646 408 639 b 396 611 393 622 394 615 b 397 596 396 606 396 600 b 399 582 399 592 399 586 z m 261 572 b 244 631 261 599 256 615 b 218 642 239 638 231 642 b 181 607 196 642 185 624 b 178 572 178 597 176 585 l 178 364 b 193 307 176 338 181 321 b 218 296 199 300 207 296 b 257 329 242 296 251 313 b 261 364 260 339 261 351 z m 196 -35 b 144 -101 167 -51 144 -72 b 236 -154 144 -131 171 -154 b 307 -142 260 -154 286 -150 b 343 -103 328 -133 343 -121 b 332 -71 343 -90 342 -81 b 268 -49 321 -61 303 -54 z "},"ģ":{"ha":475,"x_min":0,"x_max":0,"o":"m 164 1101 l 240 1282 l 310 1282 l 261 1101 l 310 1101 l 310 947 l 164 947 z m 399 367 b 321 208 394 296 369 246 b 218 179 296 189 261 179 b 206 179 214 179 210 179 b 192 181 201 179 196 179 b 172 146 179 169 172 158 b 207 114 172 129 186 119 b 279 99 228 107 253 103 b 410 56 324 93 371 82 b 474 -78 447 29 474 -11 b 397 -231 474 -151 442 -201 b 233 -272 351 -260 290 -272 b 71 -239 167 -271 110 -261 b 8 -125 31 -217 8 -181 b 43 -57 8 -99 22 -76 b 118 -10 64 -37 92 -22 b 33 92 72 3 33 32 b 63 157 33 114 46 136 b 121 206 79 178 100 194 b 51 308 81 232 61 274 b 40 371 46 329 42 350 l 40 578 b 117 740 46 649 68 700 b 218 771 140 761 175 771 b 358 701 289 771 332 739 b 407 743 368 711 385 728 b 474 771 428 758 451 771 l 474 646 b 392 629 436 646 408 639 b 396 611 393 622 394 615 b 397 596 396 606 396 600 b 399 582 399 592 399 586 z m 261 572 b 244 631 261 599 256 615 b 218 642 239 638 231 642 b 181 607 196 642 185 624 b 178 572 178 597 176 585 l 178 364 b 193 307 176 338 181 321 b 218 296 199 300 207 296 b 257 329 242 296 251 313 b 261 364 260 339 261 351 z m 196 -35 b 144 -101 167 -51 144 -72 b 236 -154 144 -131 171 -154 b 307 -142 260 -154 286 -150 b 343 -103 328 -133 343 -121 b 332 -71 343 -90 342 -81 b 268 -49 321 -61 303 -54 z "},"ġ":{"ha":475,"x_min":0,"x_max":0,"o":"m 169 1021 l 310 1021 l 310 881 l 169 881 z m 399 367 b 321 208 394 296 369 246 b 218 179 296 189 261 179 b 206 179 214 179 210 179 b 192 181 201 179 196 179 b 172 146 179 169 172 158 b 207 114 172 129 186 119 b 279 99 228 107 253 103 b 410 56 324 93 371 82 b 474 -78 447 29 474 -11 b 397 -231 474 -151 442 -201 b 233 -272 351 -260 290 -272 b 71 -239 167 -271 110 -261 b 8 -125 31 -217 8 -181 b 43 -57 8 -99 22 -76 b 118 -10 64 -37 92 -22 b 33 92 72 3 33 32 b 63 157 33 114 46 136 b 121 206 79 178 100 194 b 51 308 81 232 61 274 b 40 371 46 329 42 350 l 40 578 b 117 740 46 649 68 700 b 218 771 140 761 175 771 b 358 701 289 771 332 739 b 407 743 368 711 385 728 b 474 771 428 758 451 771 l 474 646 b 392 629 436 646 408 639 b 396 611 393 622 394 615 b 397 596 396 606 396 600 b 399 582 399 592 399 586 z m 261 572 b 244 631 261 599 256 615 b 218 642 239 638 231 642 b 181 607 196 642 185 624 b 178 572 178 597 176 585 l 178 364 b 193 307 176 338 181 321 b 218 296 199 300 207 296 b 257 329 242 296 251 313 b 261 364 260 339 261 351 z m 196 -35 b 144 -101 167 -51 144 -72 b 236 -154 144 -131 171 -154 b 307 -142 260 -154 286 -150 b 343 -103 328 -133 343 -121 b 332 -71 343 -90 342 -81 b 268 -49 321 -61 303 -54 z "},"h":{"ha":468,"x_min":0,"x_max":0,"o":"m 196 0 l 56 0 l 56 1021 l 196 1021 l 196 696 b 213 711 199 697 204 703 b 274 761 228 726 249 747 b 310 771 286 768 297 771 b 390 721 347 771 374 749 b 415 622 407 692 415 654 l 415 0 l 275 0 l 275 601 b 242 635 275 631 258 635 b 208 617 226 635 218 626 b 196 599 204 611 200 606 z "},"ħ":{"ha":468,"x_min":0,"x_max":0,"o":"m 196 850 l 272 850 l 272 960 l 196 960 l 196 1021 l 56 1021 l 56 960 l 3 960 l 3 850 l 56 850 l 56 0 l 196 0 l 196 599 b 208 617 200 606 204 611 b 242 635 218 626 226 635 b 275 601 258 635 275 631 l 275 0 l 415 0 l 415 622 b 390 721 415 654 407 692 b 310 771 374 749 347 771 b 274 761 297 771 286 768 b 213 711 249 747 228 726 b 196 696 204 703 199 697 z "},"ĥ":{"ha":468,"x_min":0,"x_max":0,"o":"m 196 888 l 235 933 l 278 885 l 406 885 l 310 1010 l 196 1010 l 196 1021 l 56 1021 l 56 0 l 196 0 l 196 599 b 208 617 200 606 204 611 b 242 635 218 626 226 635 b 275 601 258 635 275 631 l 275 0 l 415 0 l 415 622 b 390 721 415 654 407 692 b 310 771 374 749 347 771 b 274 761 297 771 286 768 b 213 711 249 747 228 726 b 196 696 204 703 199 697 z "},"i":{"ha":251,"x_min":0,"x_max":0,"o":"m 56 1021 l 196 1021 l 196 881 l 56 881 z m 56 0 l 56 760 l 196 760 l 196 0 z "},"ı":{"ha":251,"x_min":0,"x_max":0,"o":"m 56 0 l 56 760 l 196 760 l 196 0 z "},"í":{"ha":251,"x_min":0,"x_max":0,"o":"m 274 1010 l 164 885 l 56 885 l 128 1010 z m 56 0 l 56 760 l 196 760 l 196 0 z "},"ĭ":{"ha":251,"x_min":0,"x_max":0,"o":"m 281 949 b 192 893 257 925 229 906 b 128 883 174 886 151 883 b 15 915 79 883 42 899 b -25 949 0 925 -14 936 l 50 1013 b 94 985 60 1000 75 990 b 128 981 104 982 115 981 b 188 996 154 981 172 986 b 208 1013 196 1000 203 1006 z m 56 0 l 56 760 l 196 760 l 196 0 z "},"î":{"ha":251,"x_min":0,"x_max":0,"o":"m 200 1010 l 296 885 l 168 885 l 125 933 l 83 885 l -44 885 l 51 1010 z m 56 0 l 56 760 l 196 760 l 196 0 z "},"ï":{"ha":253,"x_min":0,"x_max":0,"o":"m -36 1021 l 93 1021 l 93 885 l -36 885 z m 160 1021 l 289 1021 l 289 885 l 160 885 z m 56 0 l 56 760 l 196 760 l 196 0 z "},"ì":{"ha":251,"x_min":0,"x_max":0,"o":"m 124 1010 l 196 885 l 88 885 l -22 1010 z m 56 0 l 56 760 l 196 760 l 196 0 z "},"ĳ":{"ha":499,"x_min":0,"x_max":0,"o":"m 56 1021 l 196 1021 l 196 881 l 56 881 z m 303 1021 l 443 1021 l 443 881 l 303 881 z m 56 0 l 56 760 l 196 760 l 196 0 z m 443 760 l 443 -19 b 424 -169 443 -58 443 -119 b 282 -261 404 -221 361 -261 b 235 -257 260 -261 244 -260 b 221 -253 229 -256 225 -254 l 221 -124 b 233 -126 225 -125 229 -125 b 260 -129 243 -128 251 -129 b 300 -86 283 -129 294 -110 b 303 -50 301 -75 303 -62 b 303 -18 303 -37 303 -26 l 303 760 z "},"ī":{"ha":251,"x_min":0,"x_max":0,"o":"m -7 1001 l 263 1001 l 263 892 l -7 892 z m 56 0 l 56 760 l 196 760 l 196 0 z "},"į":{"ha":251,"x_min":0,"x_max":0,"o":"m 196 1021 l 56 1021 l 56 881 l 196 881 z m 196 0 l 196 760 l 56 760 l 56 0 l 107 0 b 61 -43 89 -12 74 -28 b 15 -143 38 -69 15 -104 b 157 -261 15 -206 67 -261 b 228 -249 181 -261 199 -258 l 239 -156 b 181 -168 222 -162 204 -168 b 111 -115 149 -168 111 -156 b 121 -69 111 -99 114 -83 b 174 0 133 -42 150 -21 z "},"ĩ":{"ha":251,"x_min":0,"x_max":0,"o":"m -7 988 b 39 1010 6 997 22 1004 b 67 1014 47 1013 57 1014 b 128 1003 88 1014 108 1010 b 189 988 147 994 168 989 b 240 999 210 988 225 993 b 263 1010 249 1003 256 1006 l 263 907 b 217 885 250 896 233 889 b 189 881 208 882 199 881 b 129 893 168 881 147 885 b 67 907 110 901 89 906 b 15 896 46 907 31 901 b -7 885 7 892 0 889 z m 56 0 l 56 760 l 196 760 l 196 0 z "},"j":{"ha":247,"x_min":0,"x_max":0,"o":"m 51 1021 l 192 1021 l 192 881 l 51 881 z m 192 760 l 192 -19 b 172 -169 192 -58 192 -119 b 31 -261 153 -221 110 -261 b -17 -257 8 -261 -7 -260 b -31 -253 -22 -256 -26 -254 l -31 -124 b -18 -126 -26 -125 -22 -125 b 8 -129 -8 -128 0 -129 b 49 -86 32 -129 43 -110 b 51 -50 50 -75 51 -62 b 51 -18 51 -37 51 -26 l 51 760 z "},"ĵ":{"ha":247,"x_min":0,"x_max":0,"o":"m 296 896 l 200 1021 l 51 1021 l -44 896 l 51 896 l 51 881 l 192 881 l 192 896 z m 51 -18 b 51 -50 51 -26 51 -37 b 49 -86 51 -62 50 -75 b 8 -129 43 -110 32 -129 b -18 -126 0 -129 -8 -128 b -31 -124 -22 -125 -26 -125 l -31 -253 b -17 -257 -26 -254 -22 -256 b 31 -261 -7 -260 8 -261 b 172 -169 110 -261 153 -221 b 192 -19 192 -119 192 -58 l 192 760 l 51 760 z "},"k":{"ha":435,"x_min":0,"x_max":0,"o":"m 196 1021 l 196 536 l 203 536 l 211 561 l 279 760 l 406 760 l 304 513 l 432 0 l 297 0 l 228 307 l 225 318 l 218 318 l 214 307 l 196 263 l 196 0 l 56 0 l 56 1021 z "},"ķ":{"ha":435,"x_min":0,"x_max":0,"o":"m 196 1021 l 196 536 l 203 536 l 211 561 l 279 760 l 406 760 l 304 513 l 432 0 l 297 0 l 228 307 l 225 318 l 218 318 l 214 307 l 196 263 l 196 0 l 56 0 l 56 1021 z m 299 -171 l 268 -261 l 197 -261 l 225 -171 l 182 -171 l 182 -75 l 299 -75 z "},"ĸ":{"ha":435,"x_min":0,"x_max":0,"o":"m 196 1021 l 196 536 l 203 536 l 211 561 l 279 760 l 406 760 l 304 513 l 432 0 l 297 0 l 228 307 l 225 318 l 218 318 l 214 307 l 196 263 l 196 0 l 56 0 l 56 1021 z "},"l":{"ha":251,"x_min":0,"x_max":0,"o":"m 56 0 l 56 1021 l 196 1021 l 196 0 z "},"ĺ":{"ha":251,"x_min":0,"x_max":0,"o":"m 236 1164 l 126 1039 l 18 1039 l 90 1164 z m 56 0 l 56 1021 l 196 1021 l 196 0 z "},"ľ":{"ha":461,"x_min":0,"x_max":0,"o":"m 56 0 l 56 1021 l 196 1021 l 196 0 z m 428 867 l 351 686 l 282 686 l 331 867 l 282 867 l 282 1021 l 428 1021 z "},"ļ":{"ha":251,"x_min":0,"x_max":0,"o":"m 56 0 l 56 1021 l 196 1021 l 196 0 z m 188 -161 l 157 -251 l 86 -251 l 114 -161 l 71 -161 l 71 -65 l 188 -65 z "},"ŀ":{"ha":397,"x_min":0,"x_max":0,"o":"m 56 0 l 56 1021 l 196 1021 l 196 0 z m 251 594 l 397 594 l 397 440 l 251 440 z "},"ł":{"ha":318,"x_min":0,"x_max":0,"o":"m 89 0 l 89 433 l 21 381 l 21 531 l 89 583 l 89 1021 l 229 1021 l 229 693 l 297 746 l 297 596 l 229 543 l 229 0 z "},"m":{"ha":693,"x_min":0,"x_max":0,"o":"m 418 0 l 286 0 l 286 601 b 249 635 286 631 264 635 b 211 617 233 635 221 626 b 196 599 206 611 200 606 l 196 0 l 56 0 l 56 760 l 196 760 l 196 696 b 213 711 199 697 204 703 b 276 761 228 726 251 747 b 313 771 289 768 300 771 b 407 686 363 771 392 731 b 429 707 413 690 419 697 b 497 760 447 726 471 744 b 535 771 510 767 522 771 b 615 721 572 771 599 749 b 640 622 632 692 640 654 l 640 0 l 508 0 l 508 601 b 471 635 508 631 486 635 b 433 617 456 635 443 626 b 418 599 428 611 422 606 z "},"n":{"ha":468,"x_min":0,"x_max":0,"o":"m 196 0 l 56 0 l 56 760 l 196 760 l 196 696 b 213 711 199 697 204 703 b 274 761 228 726 249 747 b 310 771 286 768 297 771 b 390 721 347 771 374 749 b 415 622 407 692 415 654 l 415 0 l 275 0 l 275 601 b 242 635 275 631 258 635 b 208 617 226 635 218 626 b 196 599 204 611 200 606 z "},"ń":{"ha":468,"x_min":0,"x_max":0,"o":"m 344 1010 l 235 885 l 126 885 l 199 1010 z m 196 0 l 56 0 l 56 760 l 196 760 l 196 696 b 213 711 199 697 204 703 b 274 761 228 726 249 747 b 310 771 286 768 297 771 b 390 721 347 771 374 749 b 415 622 407 692 415 654 l 415 0 l 275 0 l 275 601 b 242 635 275 631 258 635 b 208 617 226 635 218 626 b 196 599 204 611 200 606 z "},"ŉ":{"ha":468,"x_min":0,"x_max":0,"o":"m 119 882 l 89 792 l 18 792 l 46 882 l 3 882 l 3 978 l 119 978 z m 196 0 l 56 0 l 56 760 l 196 760 l 196 696 b 213 711 199 697 204 703 b 274 761 228 726 249 747 b 310 771 286 768 297 771 b 390 721 347 771 374 749 b 415 622 407 692 415 654 l 415 0 l 275 0 l 275 601 b 242 635 275 631 258 635 b 208 617 226 635 218 626 b 196 599 204 611 200 606 z "},"ň":{"ha":468,"x_min":0,"x_max":0,"o":"m 161 885 l 65 1010 l 193 1010 l 235 961 l 278 1010 l 406 1010 l 310 885 z m 196 0 l 56 0 l 56 760 l 196 760 l 196 696 b 213 711 199 697 204 703 b 274 761 228 726 249 747 b 310 771 286 768 297 771 b 390 721 347 771 374 749 b 415 622 407 692 415 654 l 415 0 l 275 0 l 275 601 b 242 635 275 631 258 635 b 208 617 226 635 218 626 b 196 599 204 611 200 606 z "},"ņ":{"ha":468,"x_min":0,"x_max":0,"o":"m 196 0 l 56 0 l 56 760 l 196 760 l 196 696 b 213 711 199 697 204 703 b 274 761 228 726 249 747 b 310 771 286 768 297 771 b 390 721 347 771 374 749 b 415 622 407 692 415 654 l 415 0 l 275 0 l 275 601 b 242 635 275 631 258 635 b 208 617 226 635 218 626 b 196 599 204 611 200 606 z m 299 -171 l 268 -261 l 197 -261 l 225 -171 l 182 -171 l 182 -75 l 299 -75 z "},"ŋ":{"ha":468,"x_min":0,"x_max":0,"o":"m 415 628 b 390 721 414 658 406 693 b 310 771 374 749 347 771 b 274 761 297 771 286 768 b 213 711 249 747 228 726 b 196 696 204 703 199 697 l 196 760 l 56 760 l 56 0 l 196 0 l 196 599 b 208 617 200 606 204 611 b 242 635 218 626 226 635 b 275 601 258 635 275 631 l 275 -8 b 264 -49 275 -26 271 -40 b 201 -67 247 -65 229 -72 l 201 -183 b 369 -139 283 -187 336 -168 b 415 -26 403 -111 415 -69 l 415 628 z "},"ñ":{"ha":468,"x_min":0,"x_max":0,"o":"m 100 988 b 146 1010 113 997 129 1004 b 174 1014 154 1013 164 1014 b 235 1003 194 1014 215 1010 b 296 988 254 994 275 989 b 347 999 317 988 332 993 b 369 1010 356 1003 363 1006 l 369 907 b 324 885 357 896 340 889 b 296 881 315 882 306 881 b 236 893 275 881 254 885 b 174 907 217 901 196 906 b 122 896 153 907 138 901 b 100 885 114 892 107 889 z m 196 0 l 56 0 l 56 760 l 196 760 l 196 696 b 213 711 199 697 204 703 b 274 761 228 726 249 747 b 310 771 286 768 297 771 b 390 721 347 771 374 749 b 415 622 407 692 415 654 l 415 0 l 275 0 l 275 601 b 242 635 275 631 258 635 b 208 617 226 635 218 626 b 196 599 204 611 200 606 z "},"o":{"ha":446,"x_min":0,"x_max":0,"o":"m 403 185 b 328 19 399 111 376 60 b 222 -11 303 -1 268 -11 b 65 89 132 -11 88 39 b 43 189 53 118 44 151 l 43 571 b 118 740 47 644 69 699 b 222 771 142 761 176 771 b 381 672 313 771 358 721 b 403 575 393 643 401 611 z m 271 571 b 253 638 272 600 267 621 b 222 649 246 644 235 649 b 179 610 196 649 185 631 b 175 571 175 599 174 586 l 175 189 b 193 124 174 160 181 139 b 222 113 200 117 210 113 b 267 150 249 113 261 129 b 271 189 271 161 272 174 z "},"ó":{"ha":446,"x_min":0,"x_max":0,"o":"m 394 1010 l 285 885 l 176 885 l 249 1010 z m 403 185 b 328 19 399 111 376 60 b 222 -11 303 -1 268 -11 b 65 89 132 -11 88 39 b 43 189 53 118 44 151 l 43 571 b 118 740 47 644 69 699 b 222 771 142 761 176 771 b 381 672 313 771 358 721 b 403 575 393 643 401 611 z m 271 571 b 253 638 272 600 267 621 b 222 649 246 644 235 649 b 179 610 196 649 185 631 b 175 571 175 599 174 586 l 175 189 b 193 124 174 160 181 139 b 222 113 200 117 210 113 b 267 150 249 113 261 129 b 271 189 271 161 272 174 z "},"ŏ":{"ha":446,"x_min":0,"x_max":0,"o":"m 378 949 b 289 893 354 925 326 906 b 225 883 271 886 249 883 b 113 915 176 883 139 899 b 72 949 97 925 83 936 l 147 1013 b 192 985 157 1000 172 990 b 225 981 201 982 213 981 b 285 996 251 981 269 986 b 306 1013 293 1000 300 1006 z m 403 185 b 328 19 399 111 376 60 b 222 -11 303 -1 268 -11 b 65 89 132 -11 88 39 b 43 189 53 118 44 151 l 43 571 b 118 740 47 644 69 699 b 222 771 142 761 176 771 b 381 672 313 771 358 721 b 403 575 393 643 401 611 z m 271 571 b 253 638 272 600 267 621 b 222 649 246 644 235 649 b 179 610 196 649 185 631 b 175 571 175 599 174 586 l 175 189 b 193 124 174 160 181 139 b 222 113 200 117 210 113 b 267 150 249 113 261 129 b 271 189 271 161 272 174 z "},"ô":{"ha":446,"x_min":0,"x_max":0,"o":"m 297 1010 l 393 885 l 265 885 l 222 933 l 181 885 l 53 885 l 149 1010 z m 403 185 b 328 19 399 111 376 60 b 222 -11 303 -1 268 -11 b 65 89 132 -11 88 39 b 43 189 53 118 44 151 l 43 571 b 118 740 47 644 69 699 b 222 771 142 761 176 771 b 381 672 313 771 358 721 b 403 575 393 643 401 611 z m 271 571 b 253 638 272 600 267 621 b 222 649 246 644 235 649 b 179 610 196 649 185 631 b 175 571 175 599 174 586 l 175 189 b 193 124 174 160 181 139 b 222 113 200 117 210 113 b 267 150 249 113 261 129 b 271 189 271 161 272 174 z "},"ö":{"ha":446,"x_min":0,"x_max":0,"o":"m 61 1021 l 190 1021 l 190 885 l 61 885 z m 257 1021 l 386 1021 l 386 885 l 257 885 z m 403 185 b 328 19 399 111 376 60 b 222 -11 303 -1 268 -11 b 65 89 132 -11 88 39 b 43 189 53 118 44 151 l 43 571 b 118 740 47 644 69 699 b 222 771 142 761 176 771 b 381 672 313 771 358 721 b 403 575 393 643 401 611 z m 271 571 b 253 638 272 600 267 621 b 222 649 246 644 235 649 b 179 610 196 649 185 631 b 175 571 175 599 174 586 l 175 189 b 193 124 174 160 181 139 b 222 113 200 117 210 113 b 267 150 249 113 261 129 b 271 189 271 161 272 174 z "},"ò":{"ha":446,"x_min":0,"x_max":0,"o":"m 213 1010 l 285 885 l 176 885 l 67 1010 z m 403 185 b 328 19 399 111 376 60 b 222 -11 303 -1 268 -11 b 65 89 132 -11 88 39 b 43 189 53 118 44 151 l 43 571 b 118 740 47 644 69 699 b 222 771 142 761 176 771 b 381 672 313 771 358 721 b 403 575 393 643 401 611 z m 271 571 b 253 638 272 600 267 621 b 222 649 246 644 235 649 b 179 610 196 649 185 631 b 175 571 175 599 174 586 l 175 189 b 193 124 174 160 181 139 b 222 113 200 117 210 113 b 267 150 249 113 261 129 b 271 189 271 161 272 174 z "},"ő":{"ha":446,"x_min":0,"x_max":0,"o":"m 231 1010 l 121 885 l 13 885 l 85 1010 z m 436 1010 l 326 885 l 218 885 l 290 1010 z m 403 185 b 328 19 399 111 376 60 b 222 -11 303 -1 268 -11 b 65 89 132 -11 88 39 b 43 189 53 118 44 151 l 43 571 b 118 740 47 644 69 699 b 222 771 142 761 176 771 b 381 672 313 771 358 721 b 403 575 393 643 401 611 z m 271 571 b 253 638 272 600 267 621 b 222 649 246 644 235 649 b 179 610 196 649 185 631 b 175 571 175 599 174 586 l 175 189 b 193 124 174 160 181 139 b 222 113 200 117 210 113 b 267 150 249 113 261 129 b 271 189 271 161 272 174 z "},"ō":{"ha":446,"x_min":0,"x_max":0,"o":"m 90 1001 l 360 1001 l 360 892 l 90 892 z m 403 185 b 328 19 399 111 376 60 b 222 -11 303 -1 268 -11 b 65 89 132 -11 88 39 b 43 189 53 118 44 151 l 43 571 b 118 740 47 644 69 699 b 222 771 142 761 176 771 b 381 672 313 771 358 721 b 403 575 393 643 401 611 z m 271 571 b 253 638 272 600 267 621 b 222 649 246 644 235 649 b 179 610 196 649 185 631 b 175 571 175 599 174 586 l 175 189 b 193 124 174 160 181 139 b 222 113 200 117 210 113 b 267 150 249 113 261 129 b 271 189 271 161 272 174 z "},"ø":{"ha":446,"x_min":0,"x_max":0,"o":"m 85 -53 l 106 29 b 50 131 74 58 57 97 b 43 189 46 149 43 168 l 43 571 b 118 740 47 644 69 699 b 222 771 142 761 176 771 b 294 758 250 771 274 765 l 308 813 l 360 813 l 339 731 b 394 632 371 701 385 664 b 403 575 399 614 401 594 l 403 185 b 328 19 399 111 376 60 b 222 -11 303 -1 268 -11 b 153 0 196 -11 174 -7 l 139 -53 z m 175 296 l 260 625 b 222 649 253 640 243 649 b 179 610 196 649 185 631 b 175 571 175 599 174 586 z m 271 463 l 186 133 b 222 113 193 119 206 113 b 267 150 249 113 261 129 b 271 189 271 161 272 174 z "},"õ":{"ha":446,"x_min":0,"x_max":0,"o":"m 89 988 b 135 1010 101 997 118 1004 b 163 1014 143 1013 153 1014 b 224 1003 183 1014 204 1010 b 285 988 243 994 264 989 b 336 999 306 988 321 993 b 358 1010 344 1003 351 1006 l 358 907 b 313 885 346 896 329 889 b 285 881 304 882 294 881 b 225 893 264 881 243 885 b 163 907 206 901 185 906 b 111 896 142 907 126 901 b 89 885 103 892 96 889 z m 403 185 b 328 19 399 111 376 60 b 222 -11 303 -1 268 -11 b 65 89 132 -11 88 39 b 43 189 53 118 44 151 l 43 571 b 118 740 47 644 69 699 b 222 771 142 761 176 771 b 381 672 313 771 358 721 b 403 575 393 643 401 611 z m 271 571 b 253 638 272 600 267 621 b 222 649 246 644 235 649 b 179 610 196 649 185 631 b 175 571 175 599 174 586 l 175 189 b 193 124 174 160 181 139 b 222 113 200 117 210 113 b 267 150 249 113 261 129 b 271 189 271 161 272 174 z "},"œ":{"ha":675,"x_min":0,"x_max":0,"o":"m 635 272 l 635 185 b 558 19 631 111 608 60 b 453 -11 533 -1 499 -11 b 338 28 401 -11 364 4 b 222 -11 311 6 274 -11 b 65 89 132 -11 88 39 b 43 189 53 118 44 151 l 43 571 b 118 740 47 644 69 699 b 222 771 142 761 176 771 b 339 731 276 771 313 754 b 454 771 365 754 400 771 b 613 672 544 771 590 721 b 635 575 625 643 633 611 l 635 354 l 403 354 l 403 185 b 411 144 403 179 404 161 b 454 113 418 128 432 113 b 499 150 481 113 493 129 b 504 189 503 161 504 174 l 504 272 z m 271 571 b 253 638 272 600 267 621 b 222 649 246 644 235 649 b 179 610 196 649 185 631 b 175 571 175 599 174 586 l 175 189 b 193 124 174 160 181 139 b 222 113 200 117 210 113 b 267 150 249 113 261 129 b 271 189 271 161 272 174 z m 403 464 l 504 464 l 504 571 b 485 638 504 600 499 621 b 454 649 478 644 467 649 b 411 617 432 649 418 633 b 403 575 404 600 403 582 z "},"p":{"ha":465,"x_min":0,"x_max":0,"o":"m 56 760 l 196 760 l 196 710 b 268 761 219 732 240 749 b 307 771 281 768 294 771 b 390 721 346 771 372 749 b 415 622 407 692 415 654 l 415 138 b 390 40 415 106 407 68 b 307 -11 372 11 346 -11 b 232 19 281 -11 253 4 b 196 50 219 29 208 39 l 196 -261 l 56 -261 z m 196 167 b 238 121 196 144 217 121 b 275 167 258 121 275 140 l 275 593 b 238 639 275 619 258 639 b 196 593 217 639 196 619 z "},"þ":{"ha":465,"x_min":0,"x_max":0,"o":"m 56 1021 l 196 1021 l 196 710 b 268 761 219 732 240 749 b 307 771 281 768 294 771 b 390 721 346 771 372 749 b 415 622 407 692 415 654 l 415 138 b 390 40 415 106 407 68 b 307 -11 372 11 346 -11 b 232 19 281 -11 253 4 b 196 50 219 29 208 39 l 196 -261 l 56 -261 z m 196 167 b 238 121 196 144 217 121 b 275 167 258 121 275 140 l 275 593 b 238 639 275 619 258 639 b 196 593 217 639 196 619 z "},"q":{"ha":465,"x_min":0,"x_max":0,"o":"m 410 -261 l 269 -261 l 269 50 b 199 -1 246 28 225 11 b 158 -11 185 -8 171 -11 b 76 40 119 -11 93 11 b 50 138 58 68 50 106 l 50 622 b 76 721 50 654 58 692 b 158 771 93 749 119 771 b 233 740 185 771 213 756 b 269 710 246 731 257 721 l 269 760 l 410 760 z m 269 593 b 228 639 269 619 249 639 b 190 593 207 639 190 619 l 190 167 b 228 121 190 140 207 121 b 269 167 249 121 269 144 z "},"r":{"ha":342,"x_min":0,"x_max":0,"o":"m 336 615 b 297 621 324 619 310 621 b 226 597 275 621 249 618 b 196 528 200 575 196 551 l 196 0 l 56 0 l 56 760 l 196 760 l 196 675 b 229 731 197 685 207 708 b 336 771 251 751 285 771 z "},"ŕ":{"ha":342,"x_min":0,"x_max":0,"o":"m 282 1010 l 172 885 l 64 885 l 136 1010 z m 336 615 b 297 621 324 619 310 621 b 226 597 275 621 249 618 b 196 528 200 575 196 551 l 196 0 l 56 0 l 56 760 l 196 760 l 196 675 b 229 731 197 685 207 708 b 336 771 251 751 285 771 z "},"ř":{"ha":342,"x_min":0,"x_max":0,"o":"m 99 885 l 3 1010 l 131 1010 l 172 961 l 215 1010 l 343 1010 l 247 885 z m 336 615 b 297 621 324 619 310 621 b 226 597 275 621 249 618 b 196 528 200 575 196 551 l 196 0 l 56 0 l 56 760 l 196 760 l 196 675 b 229 731 197 685 207 708 b 336 771 251 751 285 771 z "},"ŗ":{"ha":342,"x_min":0,"x_max":0,"o":"m 336 615 b 297 621 324 619 310 621 b 226 597 275 621 249 618 b 196 528 200 575 196 551 l 196 0 l 56 0 l 56 760 l 196 760 l 196 675 b 229 731 197 685 207 708 b 336 771 251 751 285 771 z m 185 -162 l 154 -253 l 83 -253 l 111 -162 l 68 -162 l 68 -67 l 185 -67 z "},"s":{"ha":428,"x_min":0,"x_max":0,"o":"m 268 565 b 263 624 268 583 268 606 b 222 654 256 640 244 654 b 188 624 204 654 193 640 b 179 565 181 607 179 583 b 210 494 179 542 192 517 b 271 429 226 472 249 450 b 358 329 300 400 335 367 b 400 197 382 290 400 247 b 361 58 400 149 389 97 b 221 -11 332 18 288 -11 b 58 75 136 -11 86 28 b 25 221 31 122 25 181 l 156 221 b 167 149 156 200 157 171 b 221 106 176 125 192 106 b 269 197 261 106 269 153 b 182 332 269 243 225 289 b 92 431 149 364 117 393 b 49 565 67 468 49 510 b 83 701 49 610 57 661 b 219 771 110 740 153 769 b 371 701 301 772 347 742 b 399 565 394 661 399 608 z "},"ś":{"ha":428,"x_min":0,"x_max":0,"o":"m 325 1010 l 215 885 l 107 885 l 179 1010 z m 268 565 b 263 624 268 583 268 606 b 222 654 256 640 244 654 b 188 624 204 654 193 640 b 179 565 181 607 179 583 b 210 494 179 542 192 517 b 271 429 226 472 249 450 b 358 329 300 400 335 367 b 400 197 382 290 400 247 b 361 58 400 149 389 97 b 221 -11 332 18 288 -11 b 58 75 136 -11 86 28 b 25 221 31 122 25 181 l 156 221 b 167 149 156 200 157 171 b 221 106 176 125 192 106 b 269 197 261 106 269 153 b 182 332 269 243 225 289 b 92 431 149 364 117 393 b 49 565 67 468 49 510 b 83 701 49 610 57 661 b 219 771 110 740 153 769 b 371 701 301 772 347 742 b 399 565 394 661 399 608 z "},"š":{"ha":428,"x_min":0,"x_max":0,"o":"m 140 885 l 44 1010 l 172 1010 l 214 961 l 257 1010 l 385 1010 l 289 885 z m 268 565 b 263 624 268 583 268 606 b 222 654 256 640 244 654 b 188 624 204 654 193 640 b 179 565 181 607 179 583 b 210 494 179 542 192 517 b 271 429 226 472 249 450 b 358 329 300 400 335 367 b 400 197 382 290 400 247 b 361 58 400 149 389 97 b 221 -11 332 18 288 -11 b 58 75 136 -11 86 28 b 25 221 31 122 25 181 l 156 221 b 167 149 156 200 157 171 b 221 106 176 125 192 106 b 269 197 261 106 269 153 b 182 332 269 243 225 289 b 92 431 149 364 117 393 b 49 565 67 468 49 510 b 83 701 49 610 57 661 b 219 771 110 740 153 769 b 371 701 301 772 347 742 b 399 565 394 661 399 608 z "},"ş":{"ha":428,"x_min":0,"x_max":0,"o":"m 268 565 b 263 624 268 583 268 606 b 222 654 256 640 244 654 b 188 624 204 654 193 640 b 179 565 181 607 179 583 b 210 494 179 542 192 517 b 271 429 226 472 249 450 b 358 329 300 400 335 367 b 400 197 382 290 400 247 b 361 58 400 149 389 97 b 221 -11 332 18 288 -11 b 58 75 136 -11 86 28 b 25 221 31 122 25 181 l 156 221 b 167 149 156 200 157 171 b 221 106 176 125 192 106 b 269 197 261 106 269 153 b 182 332 269 243 225 289 b 92 431 149 364 117 393 b 49 565 67 468 49 510 b 83 701 49 610 57 661 b 219 771 110 740 153 769 b 371 701 301 772 347 742 b 399 565 394 661 399 608 z m 274 -171 l 243 -261 l 172 -261 l 200 -171 l 157 -171 l 157 -75 l 274 -75 z "},"ŝ":{"ha":428,"x_min":0,"x_max":0,"o":"m 290 1010 l 386 885 l 258 885 l 215 933 l 174 885 l 46 885 l 142 1010 z m 268 565 b 263 624 268 583 268 606 b 222 654 256 640 244 654 b 188 624 204 654 193 640 b 179 565 181 607 179 583 b 210 494 179 542 192 517 b 271 429 226 472 249 450 b 358 329 300 400 335 367 b 400 197 382 290 400 247 b 361 58 400 149 389 97 b 221 -11 332 18 288 -11 b 58 75 136 -11 86 28 b 25 221 31 122 25 181 l 156 221 b 167 149 156 200 157 171 b 221 106 176 125 192 106 b 269 197 261 106 269 153 b 182 332 269 243 225 289 b 92 431 149 364 117 393 b 49 565 67 468 49 510 b 83 701 49 610 57 661 b 219 771 110 740 153 769 b 371 701 301 772 347 742 b 399 565 394 661 399 608 z "},"ß":{"ha":497,"x_min":0,"x_max":0,"o":"m 235 760 b 293 839 267 760 293 790 b 235 907 293 876 275 907 b 185 838 200 907 185 875 l 185 0 l 44 0 l 44 838 b 90 974 44 889 58 939 b 235 1032 122 1008 168 1032 b 374 975 297 1032 344 1010 b 418 839 403 940 418 890 b 358 721 418 789 396 749 b 433 619 390 703 415 672 b 461 390 451 567 461 492 b 403 68 461 222 442 124 b 235 0 364 13 307 0 l 235 131 b 300 176 263 131 286 139 b 321 390 314 214 321 279 b 300 615 321 508 314 576 b 235 664 286 654 263 664 z "},"ſ":{"ha":322,"x_min":0,"x_max":0,"o":"m 25 0 l 25 796 b 201 1010 25 964 97 1010 b 300 999 231 1010 264 1006 l 283 890 b 224 896 264 894 244 896 b 132 785 157 896 132 872 l 132 0 z "},"t":{"ha":340,"x_min":0,"x_max":0,"o":"m 225 947 l 225 760 l 321 760 l 321 633 l 225 633 l 225 256 b 231 176 225 232 225 201 b 269 131 236 151 247 131 b 304 133 281 131 294 132 b 321 136 310 135 315 135 l 321 -1 b 300 -7 314 -3 307 -6 b 246 -11 286 -10 268 -11 b 106 83 164 -11 125 31 b 85 244 86 136 85 200 l 85 633 l 14 633 l 14 760 l 85 760 l 85 947 z "},"ŧ":{"ha":340,"x_min":0,"x_max":0,"o":"m 321 633 l 321 760 l 225 760 l 225 892 l 307 892 l 307 1001 l 38 1001 l 38 892 l 85 892 l 85 760 l 14 760 l 14 633 l 85 633 l 85 244 b 106 83 85 200 86 136 b 246 -11 125 31 164 -11 b 300 -7 268 -11 286 -10 b 321 -1 307 -6 314 -3 l 321 136 b 304 133 315 135 310 135 b 269 131 294 132 281 131 b 231 176 247 131 236 151 b 225 256 225 201 225 232 l 225 633 z "},"ť":{"ha":550,"x_min":0,"x_max":0,"o":"m 517 867 l 440 686 l 371 686 l 419 867 l 371 867 l 371 1021 l 517 1021 z m 225 947 l 225 760 l 321 760 l 321 633 l 225 633 l 225 256 b 231 176 225 232 225 201 b 269 131 236 151 247 131 b 304 133 281 131 294 132 b 321 136 310 135 315 135 l 321 -1 b 300 -7 314 -3 307 -6 b 246 -11 286 -10 268 -11 b 106 83 164 -11 125 31 b 85 244 86 136 85 200 l 85 633 l 14 633 l 14 760 l 85 760 l 85 947 z "},"ț":{"ha":340,"x_min":0,"x_max":0,"o":"m 225 947 l 225 760 l 321 760 l 321 633 l 225 633 l 225 256 b 231 176 225 232 225 201 b 269 131 236 151 247 131 b 304 133 281 131 294 132 b 321 136 310 135 315 135 l 321 -1 b 300 -7 314 -3 307 -6 b 246 -11 286 -10 268 -11 b 106 83 164 -11 125 31 b 85 244 86 136 85 200 l 85 633 l 14 633 l 14 760 l 85 760 l 85 947 z m 299 -171 l 268 -261 l 197 -261 l 225 -171 l 182 -171 l 182 -75 l 299 -75 z "},"u":{"ha":468,"x_min":0,"x_max":0,"o":"m 272 760 l 413 760 l 413 0 l 272 0 l 272 64 b 257 50 269 63 264 57 b 196 0 240 33 221 14 b 158 -11 183 -7 171 -11 b 78 40 121 -11 94 11 b 53 138 61 68 53 106 l 53 760 l 193 760 l 193 158 b 226 125 193 129 210 125 b 260 143 242 125 250 133 b 272 161 264 147 268 154 z "},"ú":{"ha":468,"x_min":0,"x_max":0,"o":"m 404 1010 l 294 885 l 186 885 l 258 1010 z m 272 760 l 413 760 l 413 0 l 272 0 l 272 64 b 257 50 269 63 264 57 b 196 0 240 33 221 14 b 158 -11 183 -7 171 -11 b 78 40 121 -11 94 11 b 53 138 61 68 53 106 l 53 760 l 193 760 l 193 158 b 226 125 193 129 210 125 b 260 143 242 125 250 133 b 272 161 264 147 268 154 z "},"ŭ":{"ha":468,"x_min":0,"x_max":0,"o":"m 389 949 b 300 893 365 925 338 906 b 236 883 282 886 260 883 b 124 915 188 883 150 899 b 83 949 108 925 94 936 l 158 1013 b 203 985 168 1000 183 990 b 236 981 213 982 224 981 b 296 996 263 981 281 986 b 317 1013 304 1000 311 1006 z m 272 760 l 413 760 l 413 0 l 272 0 l 272 64 b 257 50 269 63 264 57 b 196 0 240 33 221 14 b 158 -11 183 -7 171 -11 b 78 40 121 -11 94 11 b 53 138 61 68 53 106 l 53 760 l 193 760 l 193 158 b 226 125 193 129 210 125 b 260 143 242 125 250 133 b 272 161 264 147 268 154 z "},"û":{"ha":468,"x_min":0,"x_max":0,"o":"m 308 1010 l 404 885 l 276 885 l 233 933 l 192 885 l 64 885 l 160 1010 z m 272 760 l 413 760 l 413 0 l 272 0 l 272 64 b 257 50 269 63 264 57 b 196 0 240 33 221 14 b 158 -11 183 -7 171 -11 b 78 40 121 -11 94 11 b 53 138 61 68 53 106 l 53 760 l 193 760 l 193 158 b 226 125 193 129 210 125 b 260 143 242 125 250 133 b 272 161 264 147 268 154 z "},"ü":{"ha":468,"x_min":0,"x_max":0,"o":"m 72 1021 l 201 1021 l 201 885 l 72 885 z m 268 1021 l 397 1021 l 397 885 l 268 885 z m 272 760 l 413 760 l 413 0 l 272 0 l 272 64 b 257 50 269 63 264 57 b 196 0 240 33 221 14 b 158 -11 183 -7 171 -11 b 78 40 121 -11 94 11 b 53 138 61 68 53 106 l 53 760 l 193 760 l 193 158 b 226 125 193 129 210 125 b 260 143 242 125 250 133 b 272 161 264 147 268 154 z "},"ù":{"ha":468,"x_min":0,"x_max":0,"o":"m 222 1010 l 294 885 l 186 885 l 76 1010 z m 272 760 l 413 760 l 413 0 l 272 0 l 272 64 b 257 50 269 63 264 57 b 196 0 240 33 221 14 b 158 -11 183 -7 171 -11 b 78 40 121 -11 94 11 b 53 138 61 68 53 106 l 53 760 l 193 760 l 193 158 b 226 125 193 129 210 125 b 260 143 242 125 250 133 b 272 161 264 147 268 154 z "},"ű":{"ha":468,"x_min":0,"x_max":0,"o":"m 242 1010 l 132 885 l 24 885 l 96 1010 z m 447 1010 l 338 885 l 229 885 l 301 1010 z m 272 760 l 413 760 l 413 0 l 272 0 l 272 64 b 257 50 269 63 264 57 b 196 0 240 33 221 14 b 158 -11 183 -7 171 -11 b 78 40 121 -11 94 11 b 53 138 61 68 53 106 l 53 760 l 193 760 l 193 158 b 226 125 193 129 210 125 b 260 143 242 125 250 133 b 272 161 264 147 268 154 z "},"ū":{"ha":468,"x_min":0,"x_max":0,"o":"m 101 1001 l 371 1001 l 371 892 l 101 892 z m 272 760 l 413 760 l 413 0 l 272 0 l 272 64 b 257 50 269 63 264 57 b 196 0 240 33 221 14 b 158 -11 183 -7 171 -11 b 78 40 121 -11 94 11 b 53 138 61 68 53 106 l 53 760 l 193 760 l 193 158 b 226 125 193 129 210 125 b 260 143 242 125 250 133 b 272 161 264 147 268 154 z "},"ų":{"ha":468,"x_min":0,"x_max":0,"o":"m 413 0 l 413 760 l 272 760 l 272 161 b 260 143 268 154 264 147 b 226 125 250 133 242 125 b 193 158 210 125 193 129 l 193 760 l 53 760 l 53 138 b 78 40 53 106 61 68 b 158 -11 94 11 121 -11 b 196 0 171 -11 183 -7 b 257 50 221 14 240 33 b 272 64 264 57 269 63 l 272 0 l 282 0 b 236 -43 264 -12 249 -28 b 190 -143 213 -69 190 -104 b 332 -261 190 -206 242 -261 b 403 -249 356 -261 374 -258 l 414 -156 b 356 -168 397 -162 379 -168 b 286 -115 324 -168 286 -156 b 296 -69 286 -99 289 -83 b 349 0 308 -42 325 -21 z "},"ů":{"ha":468,"x_min":0,"x_max":0,"o":"m 132 964 b 236 1061 132 1021 179 1061 b 339 964 293 1061 339 1021 b 236 867 339 907 293 867 b 132 964 179 867 132 907 z m 185 964 b 236 915 185 938 210 915 b 288 964 263 915 288 938 b 236 1013 288 990 263 1013 b 185 964 210 1013 185 990 z m 272 760 l 413 760 l 413 0 l 272 0 l 272 64 b 257 50 269 63 264 57 b 196 0 240 33 221 14 b 158 -11 183 -7 171 -11 b 78 40 121 -11 94 11 b 53 138 61 68 53 106 l 53 760 l 193 760 l 193 158 b 226 125 193 129 210 125 b 260 143 242 125 250 133 b 272 161 264 147 268 154 z "},"ũ":{"ha":468,"x_min":0,"x_max":0,"o":"m 101 988 b 147 1010 114 997 131 1004 b 175 1014 156 1013 165 1014 b 236 1003 196 1014 217 1010 b 297 988 256 994 276 989 b 349 999 318 988 333 993 b 371 1010 357 1003 364 1006 l 371 907 b 325 885 358 896 342 889 b 297 881 317 882 307 881 b 238 893 276 881 256 885 b 175 907 218 901 197 906 b 124 896 154 907 139 901 b 101 885 115 892 108 889 z m 272 760 l 413 760 l 413 0 l 272 0 l 272 64 b 257 50 269 63 264 57 b 196 0 240 33 221 14 b 158 -11 183 -7 171 -11 b 78 40 121 -11 94 11 b 53 138 61 68 53 106 l 53 760 l 193 760 l 193 158 b 226 125 193 129 210 125 b 260 143 242 125 250 133 b 272 161 264 147 268 154 z "},"v":{"ha":408,"x_min":0,"x_max":0,"o":"m 135 0 l 11 760 l 147 760 l 193 319 l 199 271 l 210 271 l 215 319 l 261 760 l 397 760 l 274 0 z "},"w":{"ha":614,"x_min":0,"x_max":0,"o":"m 371 0 l 317 363 l 310 406 l 304 406 l 297 363 l 243 0 l 126 0 l 14 760 l 142 760 l 186 363 l 192 319 l 200 319 l 207 363 l 265 760 l 349 760 l 407 363 l 414 319 l 422 319 l 428 363 l 472 760 l 600 760 l 488 0 z "},"ŵ":{"ha":614,"x_min":0,"x_max":0,"o":"m 383 1010 l 479 885 l 351 885 l 308 933 l 267 885 l 139 885 l 235 1010 z m 371 0 l 317 363 l 310 406 l 304 406 l 297 363 l 243 0 l 126 0 l 14 760 l 142 760 l 186 363 l 192 319 l 200 319 l 207 363 l 265 760 l 349 760 l 407 363 l 414 319 l 422 319 l 428 363 l 472 760 l 600 760 l 488 0 z "},"x":{"ha":419,"x_min":0,"x_max":0,"o":"m 142 392 l 22 760 l 154 760 l 204 582 l 208 561 l 211 561 l 215 582 l 265 760 l 397 760 l 278 392 l 408 0 l 272 0 l 215 192 l 211 213 l 208 213 l 204 192 l 147 0 l 11 0 z "},"y":{"ha":431,"x_min":0,"x_max":0,"o":"m 22 -144 b 31 -146 24 -146 26 -146 b 94 -133 38 -147 72 -150 b 140 -64 117 -117 132 -93 b 146 -22 144 -50 146 -36 l 17 760 l 154 760 l 210 293 l 213 254 l 218 254 l 221 293 l 276 760 l 414 760 l 279 -57 b 218 -204 272 -111 251 -164 b 85 -272 185 -244 140 -272 b 68 -272 81 -272 75 -272 b 22 -269 56 -272 39 -271 z "},"ý":{"ha":431,"x_min":0,"x_max":0,"o":"m 375 1010 l 265 885 l 157 885 l 229 1010 z m 22 -144 b 31 -146 24 -146 26 -146 b 94 -133 38 -147 72 -150 b 140 -64 117 -117 132 -93 b 146 -22 144 -50 146 -36 l 17 760 l 154 760 l 210 293 l 213 254 l 218 254 l 221 293 l 276 760 l 414 760 l 279 -57 b 218 -204 272 -111 251 -164 b 85 -272 185 -244 140 -272 b 68 -272 81 -272 75 -272 b 22 -269 56 -272 39 -271 z "},"ŷ":{"ha":431,"x_min":0,"x_max":0,"o":"m 292 1010 l 388 885 l 260 885 l 217 933 l 175 885 l 47 885 l 143 1010 z m 22 -144 b 31 -146 24 -146 26 -146 b 94 -133 38 -147 72 -150 b 140 -64 117 -117 132 -93 b 146 -22 144 -50 146 -36 l 17 760 l 154 760 l 210 293 l 213 254 l 218 254 l 221 293 l 276 760 l 414 760 l 279 -57 b 218 -204 272 -111 251 -164 b 85 -272 185 -244 140 -272 b 68 -272 81 -272 75 -272 b 22 -269 56 -272 39 -271 z "},"ÿ":{"ha":431,"x_min":0,"x_max":0,"o":"m 53 1021 l 182 1021 l 182 885 l 53 885 z m 249 1021 l 378 1021 l 378 885 l 249 885 z m 22 -144 b 31 -146 24 -146 26 -146 b 94 -133 38 -147 72 -150 b 140 -64 117 -117 132 -93 b 146 -22 144 -50 146 -36 l 17 760 l 154 760 l 210 293 l 213 254 l 218 254 l 221 293 l 276 760 l 414 760 l 279 -57 b 218 -204 272 -111 251 -164 b 85 -272 185 -244 140 -272 b 68 -272 81 -272 75 -272 b 22 -269 56 -272 39 -271 z "},"z":{"ha":361,"x_min":0,"x_max":0,"o":"m 8 114 l 201 632 l 39 632 l 39 760 l 350 760 l 350 646 l 157 128 l 350 128 l 350 0 l 8 0 z "},"ź":{"ha":361,"x_min":0,"x_max":0,"o":"m 292 1010 l 182 885 l 74 885 l 146 1010 z m 8 114 l 201 632 l 39 632 l 39 760 l 350 760 l 350 646 l 157 128 l 350 128 l 350 0 l 8 0 z "},"ž":{"ha":361,"x_min":0,"x_max":0,"o":"m 113 885 l 17 1010 l 144 1010 l 186 961 l 229 1010 l 357 1010 l 261 885 z m 8 114 l 201 632 l 39 632 l 39 760 l 350 760 l 350 646 l 157 128 l 350 128 l 350 0 l 8 0 z "},"ż":{"ha":361,"x_min":0,"x_max":0,"o":"m 113 1021 l 253 1021 l 253 881 l 113 881 z m 8 114 l 201 632 l 39 632 l 39 760 l 350 760 l 350 646 l 157 128 l 350 128 l 350 0 l 8 0 z "},"ﬁ":{"ha":524,"x_min":0,"x_max":0,"o":"m 328 0 l 328 633 l 225 633 l 225 0 l 85 0 l 85 633 l 14 633 l 14 760 l 85 760 l 85 781 b 106 936 85 819 83 883 b 257 1031 126 989 169 1031 b 326 1025 283 1031 308 1029 b 357 1021 336 1024 347 1022 l 357 896 b 338 900 351 897 344 899 b 282 904 325 901 306 904 b 231 856 250 904 238 882 b 225 814 226 842 225 828 b 225 779 225 799 225 788 l 225 760 l 468 760 l 468 0 z "},"ﬂ":{"ha":524,"x_min":0,"x_max":0,"o":"m 328 0 l 328 901 b 282 904 315 903 303 904 b 231 856 250 904 238 882 b 225 814 226 842 225 828 b 225 779 225 799 225 788 l 225 760 l 296 760 l 296 633 l 225 633 l 225 0 l 85 0 l 85 633 l 14 633 l 14 760 l 85 760 l 85 781 b 106 936 85 819 83 883 b 257 1031 126 989 169 1031 b 326 1025 283 1031 308 1029 b 357 1021 336 1024 347 1022 l 468 1021 l 468 0 z "},"*":{"ha":460,"x_min":0,"x_max":0,"o":"m 178 1021 l 282 1021 l 269 901 l 381 949 l 410 849 l 293 825 l 371 732 l 282 678 l 229 781 l 178 678 l 89 732 l 167 825 l 50 849 l 79 949 l 190 901 z "},"\\":{"ha":538,"x_min":0,"x_max":0,"o":"m 532 -122 l 418 -122 l 6 1147 l 115 1147 z "},"•":{"ha":450,"x_min":0,"x_max":0,"o":"m 56 554 b 106 674 56 600 75 643 b 226 722 136 704 178 722 b 346 674 272 722 315 704 b 394 554 376 643 394 600 b 346 433 394 506 376 464 b 226 383 315 403 272 383 b 106 433 178 383 136 403 b 56 554 75 464 56 506 z "},":":{"ha":246,"x_min":0,"x_max":0,"o":"m 50 760 l 196 760 l 196 606 l 50 606 z m 50 154 l 196 154 l 196 0 l 50 0 z "},",":{"ha":210,"x_min":0,"x_max":0,"o":"m 176 0 l 100 -181 l 31 -181 l 79 0 l 31 0 l 31 154 l 176 154 z "},"…":{"ha":654,"x_min":0,"x_max":0,"o":"m 36 154 l 182 154 l 182 0 l 36 0 z m 254 154 l 400 154 l 400 0 l 254 0 z m 472 154 l 618 154 l 618 0 l 472 0 z "},"!":{"ha":263,"x_min":0,"x_max":0,"o":"m 50 1021 l 213 1021 l 175 275 l 88 275 z m 58 154 l 204 154 l 204 0 l 58 0 z "},"¡":{"ha":263,"x_min":0,"x_max":0,"o":"m 58 760 l 204 760 l 204 606 l 58 606 z m 88 485 l 175 485 l 213 -261 l 50 -261 z "},"#":{"ha":836,"x_min":0,"x_max":0,"o":"m 51 429 l 186 429 l 211 604 l 78 604 l 96 736 l 229 736 l 268 1021 l 401 1021 l 363 736 l 539 736 l 578 1021 l 711 1021 l 672 736 l 803 736 l 785 604 l 654 604 l 629 429 l 758 429 l 740 297 l 611 297 l 571 0 l 438 0 l 478 297 l 301 297 l 261 0 l 128 0 l 168 297 l 33 297 z m 319 429 l 496 429 l 521 604 l 344 604 z "},".":{"ha":218,"x_min":0,"x_max":0,"o":"m 36 154 l 182 154 l 182 0 l 36 0 z "},"·":{"ha":146,"x_min":0,"x_max":0,"o":"m 0 594 l 146 594 l 146 440 l 0 440 z "},"?":{"ha":438,"x_min":0,"x_max":0,"o":"m 143 275 l 143 449 b 174 632 143 522 156 582 b 236 756 192 682 215 721 b 272 832 256 788 268 814 b 267 871 274 842 272 857 b 226 896 260 885 247 896 b 167 858 200 896 182 879 b 138 797 151 836 142 810 l 17 854 b 82 958 24 876 47 919 b 229 1026 115 996 164 1028 b 379 949 307 1025 354 990 b 410 832 404 907 410 860 b 356 683 410 775 385 733 b 329 639 347 669 339 654 b 281 522 310 606 292 567 b 272 449 275 499 272 475 l 272 275 z m 135 154 l 281 154 l 281 0 l 135 0 z "},"¿":{"ha":438,"x_min":0,"x_max":0,"o":"m 303 606 l 157 606 l 157 760 l 303 760 z m 294 485 l 294 311 b 264 128 294 238 281 178 b 201 4 246 78 222 39 b 165 -72 182 -28 169 -54 b 172 -110 164 -82 165 -96 b 211 -136 178 -124 190 -136 b 271 -97 235 -136 256 -119 b 300 -37 286 -76 296 -53 l 421 -94 b 357 -197 411 -117 390 -160 b 208 -267 322 -236 271 -268 b 60 -187 131 -265 85 -229 b 28 -72 35 -146 28 -100 b 82 76 28 -15 53 26 b 110 122 90 90 100 106 b 157 239 129 154 146 193 b 165 311 163 261 165 285 l 165 485 z "},"\"":{"ha":361,"x_min":0,"x_max":0,"o":"m 74 647 l 53 1021 l 199 1021 l 178 647 z m 246 647 l 225 1021 l 371 1021 l 350 647 z "},"'":{"ha":210,"x_min":0,"x_max":0,"o":"m 60 647 l 39 1021 l 185 1021 l 164 647 z "},";":{"ha":246,"x_min":0,"x_max":0,"o":"m 50 760 l 196 760 l 196 606 l 50 606 z m 196 0 l 119 -181 l 50 -181 l 99 0 l 50 0 l 50 154 l 196 154 z "},"/":{"ha":489,"x_min":0,"x_max":0,"o":"m 374 1021 l 483 1021 l 119 -100 l 6 -100 z "},"_":{"ha":821,"x_min":0,"x_max":0,"o":"m 50 -104 l 771 -104 l 771 -221 l 50 -221 z "},"{":{"ha":467,"x_min":0,"x_max":0,"o":"m 428 915 b 301 890 368 915 328 911 b 264 782 275 869 264 838 l 264 513 b 178 363 264 439 232 396 b 264 213 232 328 264 285 l 264 -57 b 301 -165 264 -112 275 -144 b 428 -190 328 -186 368 -190 l 428 -307 b 199 -261 321 -308 246 -299 b 131 -57 151 -224 131 -161 l 131 213 b 114 265 131 222 126 243 b 42 307 101 286 79 306 l 42 418 b 114 458 79 418 101 436 b 131 513 126 479 131 503 l 131 782 b 199 986 131 886 151 949 b 428 1032 246 1024 321 1033 z "},"}":{"ha":467,"x_min":0,"x_max":0,"o":"m 336 513 b 353 458 336 503 340 479 b 425 418 365 436 388 418 l 425 307 b 353 265 388 306 365 286 b 336 213 340 243 336 222 l 336 -57 b 269 -261 336 -161 317 -224 b 39 -307 222 -299 146 -308 l 39 -190 b 165 -165 99 -190 139 -186 b 203 -57 192 -144 203 -112 l 203 213 b 289 363 203 285 235 328 b 203 513 235 396 203 439 l 203 782 b 165 890 203 838 192 869 b 39 915 139 911 99 915 l 39 1032 b 269 986 146 1033 222 1024 b 336 782 317 949 336 886 z "},"[":{"ha":365,"x_min":0,"x_max":0,"o":"m 326 888 l 189 888 l 189 -11 l 326 -11 l 326 -144 l 56 -144 l 56 1021 l 326 1021 z "},"]":{"ha":365,"x_min":0,"x_max":0,"o":"m 39 1021 l 310 1021 l 310 -144 l 39 -144 l 39 -11 l 176 -11 l 176 888 l 39 888 z "},"(":{"ha":381,"x_min":0,"x_max":0,"o":"m 353 1021 b 206 675 286 925 242 817 b 178 438 188 604 178 525 b 265 17 178 264 221 121 b 353 -144 290 -43 319 -97 l 243 -201 b 75 192 169 -86 115 36 b 44 438 54 268 44 350 b 143 888 44 611 93 771 b 243 1078 172 956 206 1019 z "},")":{"ha":381,"x_min":0,"x_max":0,"o":"m 138 1078 b 306 685 210 961 264 839 b 336 438 326 607 336 525 b 236 -12 336 264 286 104 b 138 -201 207 -81 174 -144 l 28 -144 b 175 201 93 -50 138 60 b 203 438 193 272 203 350 b 115 858 203 611 158 754 b 28 1021 89 918 60 972 z "},"—":{"ha":660,"x_min":0,"x_max":0,"o":"m 50 572 l 610 572 l 610 440 l 50 440 z "},"–":{"ha":547,"x_min":0,"x_max":0,"o":"m 50 572 l 497 572 l 497 440 l 50 440 z "},"-":{"ha":301,"x_min":0,"x_max":0,"o":"m 50 440 l 251 440 l 251 308 l 50 308 z "},"„":{"ha":424,"x_min":0,"x_max":0,"o":"m 182 0 l 106 -181 l 36 -181 l 85 0 l 36 0 l 36 154 l 182 154 z m 388 0 l 311 -181 l 242 -181 l 290 0 l 242 0 l 242 154 l 388 154 z "},"“":{"ha":424,"x_min":0,"x_max":0,"o":"m 36 840 l 113 1021 l 182 1021 l 133 840 l 182 840 l 182 686 l 36 686 z m 242 840 l 318 1021 l 388 1021 l 339 840 l 388 840 l 388 686 l 242 686 z "},"”":{"ha":424,"x_min":0,"x_max":0,"o":"m 182 867 l 106 686 l 36 686 l 85 867 l 36 867 l 36 1021 l 182 1021 z m 388 867 l 311 686 l 242 686 l 290 867 l 242 867 l 242 1021 l 388 1021 z "},"‘":{"ha":210,"x_min":0,"x_max":0,"o":"m 33 840 l 110 1021 l 179 1021 l 131 840 l 179 840 l 179 686 l 33 686 z "},"’":{"ha":210,"x_min":0,"x_max":0,"o":"m 176 867 l 100 686 l 31 686 l 79 867 l 31 867 l 31 1021 l 176 1021 z "},"‚":{"ha":210,"x_min":0,"x_max":0,"o":"m 176 0 l 100 -181 l 31 -181 l 79 0 l 31 0 l 31 154 l 176 154 z "}," ":{"ha":214,"x_min":0,"x_max":0,"o":""},"¢":{"ha":432,"x_min":0,"x_max":0,"o":"m 269 1063 l 269 897 b 367 839 313 890 344 872 b 399 683 388 806 399 756 l 399 624 l 271 624 l 271 715 b 221 776 271 761 253 776 b 172 715 183 776 172 743 l 172 306 b 221 244 172 278 183 244 b 271 306 253 244 271 260 l 271 411 l 399 411 l 399 338 b 269 122 399 193 354 135 l 269 -83 l 186 -83 l 186 121 b 44 344 103 133 44 194 l 44 676 b 186 899 44 825 103 886 l 186 1063 z "},"$":{"ha":469,"x_min":0,"x_max":0,"o":"m 278 1104 l 278 1019 b 394 954 333 1014 369 989 b 438 828 419 919 432 874 l 307 811 b 244 896 301 857 288 897 b 201 861 222 896 210 882 b 188 786 193 840 188 814 b 226 669 188 747 204 707 b 304 557 249 631 278 592 b 351 490 319 536 335 514 b 432 338 385 443 414 392 b 444 251 440 310 444 281 b 408 88 444 190 435 132 b 278 1 382 42 340 8 l 278 -146 l 194 -146 l 194 4 b 67 89 133 15 93 46 b 25 243 40 132 26 186 l 156 251 b 178 164 157 218 164 186 b 243 125 192 140 211 125 b 292 164 267 125 282 140 b 306 250 301 186 306 217 b 267 368 306 289 289 329 b 229 425 254 388 242 407 b 142 544 201 461 175 496 b 63 699 108 593 79 643 b 49 783 53 726 49 754 b 79 926 49 833 57 883 b 194 1015 101 969 139 1003 l 194 1104 z "},"€":{"ha":551,"x_min":0,"x_max":0,"o":"m 36 650 l 108 650 l 108 811 b 133 921 110 851 118 889 b 192 997 146 949 164 976 b 308 1032 219 1018 258 1032 b 424 997 358 1032 396 1018 b 483 921 451 976 471 949 b 508 811 499 889 507 851 l 508 754 l 368 754 l 368 811 b 346 875 368 839 361 858 b 311 886 339 882 326 886 b 265 849 285 886 272 867 b 258 811 261 838 260 825 l 258 650 l 417 650 l 417 557 l 258 557 l 258 464 l 417 464 l 417 371 l 258 371 l 258 210 b 282 146 260 181 268 161 b 311 135 289 139 299 135 b 363 172 343 135 356 151 b 368 210 367 182 368 194 l 368 267 l 508 267 l 508 210 b 483 99 507 168 499 131 b 424 24 471 71 451 44 b 308 -11 396 1 358 -11 b 192 24 258 -11 219 1 b 133 99 164 44 146 71 b 108 210 118 131 110 168 l 108 371 l 36 371 l 36 464 l 108 464 l 108 557 l 36 557 z "},"£":{"ha":554,"x_min":0,"x_max":0,"o":"m 346 760 b 331 853 346 793 342 828 b 268 893 319 878 300 893 b 221 856 246 893 231 878 b 207 779 210 833 207 806 b 254 550 207 706 231 628 l 258 533 l 401 533 l 401 440 l 283 440 b 300 322 294 394 300 354 b 261 174 300 285 288 228 b 308 149 279 165 294 157 b 351 133 321 139 336 135 b 388 164 364 135 376 144 b 407 263 399 182 406 215 l 535 247 b 364 -11 524 76 453 -11 b 267 24 331 -11 299 7 b 179 58 235 40 206 58 b 121 24 153 58 133 40 b 101 -11 113 14 106 1 l 3 43 b 83 157 24 89 49 125 b 146 188 101 172 122 183 b 171 322 161 231 171 283 b 150 440 171 357 163 397 l 22 440 l 22 533 l 122 533 l 118 547 b 65 779 92 635 65 722 b 108 949 65 836 76 900 b 265 1032 140 997 189 1031 b 446 949 356 1033 413 999 b 490 760 479 897 490 828 z "},"¥":{"ha":489,"x_min":0,"x_max":0,"o":"m 50 324 l 169 324 l 169 417 l 50 417 l 50 510 l 150 510 l 17 1021 l 164 1021 l 239 694 l 243 685 l 246 685 l 250 694 l 325 1021 l 472 1021 l 339 510 l 439 510 l 439 417 l 319 417 l 319 324 l 439 324 l 439 231 l 319 231 l 319 0 l 169 0 l 169 231 l 50 231 z "},"~":{"ha":868,"x_min":0,"x_max":0,"o":"m 76 917 b 200 1093 103 994 143 1049 b 304 1125 229 1114 264 1125 b 492 1056 388 1125 438 1089 b 610 1007 529 1029 567 1007 b 707 1068 653 1007 686 1036 b 739 1131 719 1086 729 1107 l 831 1092 b 708 914 801 1013 763 957 b 610 882 681 893 647 882 b 425 950 532 882 479 915 b 304 1000 386 976 347 1000 b 200 939 256 1000 222 971 b 168 878 188 921 176 901 z "},"=":{"ha":718,"x_min":0,"x_max":0,"o":"m 50 703 l 668 703 l 668 586 l 50 586 z m 50 440 l 668 440 l 668 324 l 50 324 z "},">":{"ha":718,"x_min":0,"x_max":0,"o":"m 668 440 l 50 118 l 50 253 l 524 494 l 50 736 l 50 871 l 668 549 z "},"<":{"ha":718,"x_min":0,"x_max":0,"o":"m 50 549 l 668 871 l 668 736 l 194 494 l 668 253 l 668 118 l 50 440 z "},"−":{"ha":526,"x_min":0,"x_max":0,"o":"m 50 557 l 476 557 l 476 440 l 50 440 z "},"%":{"ha":679,"x_min":0,"x_max":0,"o":"m 253 618 b 207 517 251 572 235 540 b 146 499 193 504 172 499 b 50 558 90 499 65 526 b 38 618 42 575 38 594 l 38 914 b 83 1014 38 958 54 989 b 146 1032 97 1026 118 1032 b 239 972 200 1032 224 1001 b 253 914 247 956 251 936 z m 107 0 l 482 1021 l 571 1021 l 200 0 z m 169 914 b 160 946 169 926 165 938 b 146 951 157 950 153 951 b 122 932 131 951 126 942 b 121 914 121 926 119 921 l 121 618 b 146 581 119 603 122 581 b 169 618 167 581 169 603 z m 643 107 b 597 7 642 61 625 31 b 536 -11 583 -6 563 -11 b 440 47 481 -11 456 18 b 428 107 432 64 428 83 l 428 403 b 474 504 428 447 444 479 b 536 522 488 517 508 522 b 629 463 590 522 614 492 b 643 403 638 444 642 425 z m 560 403 b 550 435 560 415 556 426 b 536 440 547 439 543 440 b 513 421 521 440 517 431 b 511 403 511 415 510 410 l 511 107 b 521 75 510 92 514 83 b 536 68 524 71 529 68 b 557 88 549 68 553 78 b 560 107 558 93 560 100 z "},"+":{"ha":719,"x_min":0,"x_max":0,"o":"m 50 557 l 301 557 l 301 792 l 418 792 l 418 557 l 669 557 l 669 440 l 418 440 l 418 206 l 301 206 l 301 440 l 50 440 z "},"&":{"ha":579,"x_min":0,"x_max":0,"o":"m 551 443 b 536 340 550 425 546 385 b 489 200 526 296 511 244 b 528 164 504 183 517 171 b 551 149 539 156 547 150 l 551 -11 b 532 -6 547 -11 542 -10 b 456 42 514 1 488 18 b 410 83 440 53 425 67 b 239 -11 360 26 301 -11 b 92 57 179 -11 128 15 b 33 214 56 99 33 153 b 149 510 33 329 92 422 b 76 810 100 610 76 703 b 151 997 78 893 101 951 b 260 1032 176 1021 213 1032 b 419 921 354 1032 399 976 b 400 669 443 856 453 768 b 300 515 374 619 340 568 b 400 322 344 414 374 361 b 432 465 418 374 428 442 z m 313 814 b 293 897 314 849 308 876 b 260 913 286 907 275 913 b 211 861 231 913 217 888 b 217 728 204 829 204 779 b 244 643 222 701 232 674 b 313 814 278 694 313 760 z m 331 178 b 213 378 293 238 256 299 b 182 288 197 354 189 326 b 199 149 175 247 174 186 b 246 119 211 129 226 119 b 331 178 283 119 304 144 z "},"@":{"ha":592,"x_min":0,"x_max":0,"o":"m 553 271 l 442 271 l 428 308 b 386 269 418 290 406 279 b 351 263 376 265 364 263 b 253 379 278 263 253 314 l 253 708 b 351 824 253 771 278 824 b 410 800 378 824 397 811 b 428 778 417 793 424 786 l 428 808 b 403 874 428 824 422 850 b 299 915 383 896 350 915 b 196 874 247 915 215 896 b 169 808 176 850 169 824 l 169 206 b 196 142 169 189 176 163 b 299 101 215 119 247 101 b 413 144 358 101 390 117 l 515 86 b 299 -11 478 36 415 -11 b 96 74 197 -11 133 28 b 44 206 57 119 44 174 l 44 808 b 96 946 44 842 57 899 b 299 1032 133 993 197 1032 b 503 946 400 1032 464 993 b 553 808 540 899 553 842 z m 428 697 b 394 733 428 719 415 733 b 363 697 374 733 363 721 l 363 389 b 394 353 363 365 374 353 b 428 389 415 353 428 363 z "},"|":{"ha":242,"x_min":0,"x_max":0,"o":"m 56 -347 l 56 1147 l 186 1147 l 186 -347 z "},"©":{"ha":1115,"x_min":0,"x_max":0,"o":"m 36 510 b 189 879 36 654 94 785 b 557 1032 283 974 414 1032 b 926 879 701 1032 832 974 b 1079 510 1021 785 1079 654 b 926 142 1079 367 1021 236 b 557 -11 832 47 701 -11 b 189 142 414 -11 283 47 b 36 510 94 236 36 367 z m 117 510 b 247 200 117 389 167 281 b 557 69 328 119 436 69 b 869 200 678 69 789 119 b 999 510 950 281 999 389 b 869 822 999 631 950 742 b 557 951 789 903 678 951 b 247 822 436 951 328 903 b 117 510 167 742 117 631 z m 683 415 l 683 331 b 629 218 679 281 663 246 b 556 197 613 204 588 197 b 440 264 489 197 457 231 b 425 331 431 283 425 306 l 425 690 b 479 803 425 740 444 775 b 556 824 497 817 522 824 b 667 757 621 824 650 790 b 683 690 676 738 682 715 l 683 606 l 590 606 l 590 690 b 578 726 592 706 588 717 b 557 733 574 731 567 733 b 528 711 540 733 532 722 b 524 690 525 704 524 697 l 524 331 b 538 294 524 314 528 303 b 557 288 542 290 549 288 b 588 308 575 288 583 297 b 590 331 590 315 592 322 l 590 415 z "},"®":{"ha":1115,"x_min":0,"x_max":0,"o":"m 36 510 b 189 879 36 654 94 785 b 557 1032 283 974 414 1032 b 926 879 701 1032 832 974 b 1079 510 1021 785 1079 654 b 926 142 1079 367 1021 236 b 557 -11 832 47 701 -11 b 189 142 414 -11 283 47 b 36 510 94 236 36 367 z m 117 510 b 247 200 117 389 167 281 b 557 69 328 119 436 69 b 869 200 678 69 789 119 b 999 510 950 281 999 389 b 869 822 999 631 950 742 b 557 951 789 903 678 951 b 247 822 436 951 328 903 b 117 510 167 742 117 631 z m 557 808 b 714 633 668 808 714 743 b 654 483 714 574 710 529 l 726 213 l 624 213 l 560 460 l 522 460 l 522 213 l 424 213 l 424 808 z m 522 721 l 522 546 l 553 546 b 610 574 582 546 601 557 b 619 632 618 590 619 611 b 610 692 619 653 618 675 b 553 721 601 708 582 721 z "},"™":{"ha":636,"x_min":0,"x_max":0,"o":"m 50 950 l 50 1021 l 268 1021 l 268 950 l 197 950 l 197 557 l 121 557 l 121 950 z m 422 557 l 368 861 l 368 557 l 299 557 l 299 1021 l 392 1021 l 438 804 l 442 804 l 488 1021 l 581 1021 l 581 557 l 510 557 l 510 861 l 457 557 z "},"^":{"ha":747,"x_min":0,"x_max":0,"o":"m 453 1021 l 711 549 l 576 549 l 374 917 l 171 549 l 36 549 l 294 1021 z "},"´":{"ha":694,"x_min":0,"x_max":0,"o":"m 496 1010 l 386 885 l 278 885 l 350 1010 z "},"˘":{"ha":694,"x_min":0,"x_max":0,"o":"m 500 949 b 411 893 476 925 449 906 b 347 883 393 886 371 883 b 235 915 299 883 261 899 b 194 949 219 925 206 936 l 269 1013 b 314 985 279 1000 294 990 b 347 981 324 982 335 981 b 407 996 374 981 392 986 b 428 1013 415 1000 422 1006 z "},"ˇ":{"ha":693,"x_min":0,"x_max":0,"o":"m 272 885 l 176 1010 l 304 1010 l 346 961 l 389 1010 l 517 1010 l 421 885 z "},"¸":{"ha":694,"x_min":0,"x_max":0,"o":"m 406 -171 l 375 -261 l 304 -261 l 332 -171 l 289 -171 l 289 -75 l 406 -75 z "},"ˆ":{"ha":693,"x_min":0,"x_max":0,"o":"m 421 1010 l 517 885 l 389 885 l 346 933 l 304 885 l 176 885 l 272 1010 z "},"¨":{"ha":694,"x_min":0,"x_max":0,"o":"m 185 1021 l 314 1021 l 314 885 l 185 885 z m 381 1021 l 510 1021 l 510 885 l 381 885 z "},"˙":{"ha":693,"x_min":0,"x_max":0,"o":"m 276 1021 l 417 1021 l 417 881 l 276 881 z "},"`":{"ha":694,"x_min":0,"x_max":0,"o":"m 344 1010 l 417 885 l 308 885 l 199 1010 z "},"˝":{"ha":694,"x_min":0,"x_max":0,"o":"m 364 1010 l 254 885 l 146 885 l 218 1010 z m 569 1010 l 460 885 l 351 885 l 424 1010 z "},"¯":{"ha":694,"x_min":0,"x_max":0,"o":"m 213 1001 l 482 1001 l 482 892 l 213 892 z "},"˛":{"ha":694,"x_min":0,"x_max":0,"o":"m 394 0 b 342 -69 371 -21 354 -42 b 332 -115 335 -83 332 -99 b 401 -168 332 -156 369 -168 b 460 -156 425 -168 443 -162 l 449 -249 b 378 -261 419 -258 401 -261 b 236 -143 288 -261 236 -206 b 282 -43 236 -104 258 -69 b 328 0 294 -28 310 -12 z "},"˚":{"ha":693,"x_min":0,"x_max":0,"o":"m 243 964 b 347 1061 243 1021 290 1061 b 450 964 404 1061 450 1021 b 347 867 450 907 404 867 b 243 964 290 867 243 907 z m 296 964 b 347 915 296 938 321 915 b 399 964 374 915 399 938 b 347 1013 399 990 374 1013 b 296 964 321 1013 296 990 z "},"˜":{"ha":694,"x_min":0,"x_max":0,"o":"m 213 988 b 258 1010 225 997 242 1004 b 286 1014 267 1013 276 1014 b 347 1003 307 1014 328 1010 b 408 988 367 994 388 989 b 460 999 429 988 444 993 b 482 1010 468 1003 475 1006 l 482 907 b 436 885 469 896 453 889 b 408 881 428 882 418 881 b 349 893 388 881 367 885 b 286 907 329 901 308 906 b 235 896 265 907 250 901 b 213 885 226 892 219 889 z "},"A":{"ha":519,"x_min":0,"x_max":0,"o":"m 14 0 l 168 1021 l 351 1021 l 506 0 l 360 0 l 332 208 l 188 208 l 160 0 z m 268 689 l 264 715 l 256 715 l 251 689 l 208 367 l 311 367 z "},"Ļ":{"ha":410,"x_min":0,"x_max":0,"o":"m 56 1021 l 206 1021 l 206 139 l 404 139 l 404 0 l 56 0 z m 299 -171 l 268 -261 l 197 -261 l 225 -171 l 182 -171 l 182 -75 l 299 -75 z "},"Þ":{"ha":492,"x_min":0,"x_max":0,"o":"m 56 1021 l 204 1021 l 204 857 l 206 857 b 386 793 271 857 336 840 b 469 551 436 746 469 668 b 386 311 469 435 436 358 b 206 244 336 264 271 244 l 206 0 l 56 0 z m 206 397 b 297 429 251 397 281 406 b 318 546 314 451 318 489 b 297 668 318 603 314 643 b 206 704 281 693 251 704 z "},"":{"ha":424,"x_min":0,"x_max":0,"o":"m 36 840 l 113 1021 l 182 1021 l 133 840 l 182 840 l 182 686 l 36 686 z m 242 840 l 318 1021 l 388 1021 l 339 840 l 388 840 l 388 686 l 242 686 z "},"":{"ha":424,"x_min":0,"x_max":0,"o":"m 182 867 l 106 686 l 36 686 l 85 867 l 36 867 l 36 1021 l 182 1021 z m 388 867 l 311 686 l 242 686 l 290 867 l 242 867 l 242 1021 l 388 1021 z "},"‟":{"ha":424,"x_min":0,"x_max":0,"o":"m 182 1021 l 182 867 l 133 867 l 182 686 l 113 686 l 36 867 l 36 1021 z m 388 1021 l 388 867 l 339 867 l 388 686 l 318 686 l 242 867 l 242 1021 z "}}}
